<svg xmlns="http://www.w3.org/2000/svg" width="258.839" height="465.828" viewBox="0 0 258.839 465.828">
  <g id="All_positive_answers" data-name="All positive answers" transform="translate(-15173.582 -4089.172)">
    <g id="Group_672" data-name="Group 672" transform="translate(780)">
      <path id="Path_708" data-name="Path 708" d="M14456.121,4444.523c-12.211-5.762-42.012-32.8-45.914-53.406s-12.359-52.883-5.156-78.043,37.137-80.832,45.191-90.363,51.8-93.418,58.012-101.312,15.93-21.117,15.93-21.117,20.773,42.563,32.438,61.223,37.621,62.367,55.223,94.4,26.219,42.016,29.148,63.16,4.449,51.359-6.07,72.055-27.5,41.523-49.395,53.406-44.141,19.59-61.344,18.816-38.16-4.57-45.219-7.4S14456.121,4444.523,14456.121,4444.523Z" fill="#397539"/>
      <g id="pure-water" transform="translate(14267 4089.172)">
        <path id="Path_707" data-name="Path 707" d="M256,382.552c71.362,0,129.42-58.4,129.42-130.185a130.863,130.863,0,0,0-16.106-62.887q-.141-.3-.31-.6L262.939,4.019a8,8,0,0,0-13.878,0L143,188.883c-.111.2-.215.394-.309.6a130.87,130.87,0,0,0-16.107,62.89c0,71.783,58.058,130.184,129.42,130.184Zm-99.05-185.8c.069-.125.136-.252.2-.38L256,24.075l98.852,172.293c.062.128.129.256.2.381a114.816,114.816,0,0,1,14.37,55.619c0,62.961-50.88,114.184-113.42,114.184S142.58,315.329,142.58,252.367a114.815,114.815,0,0,1,14.37-55.618Z" fill="#397539"/>
      </g>
    </g>
    <circle id="Ellipse_94" data-name="Ellipse 94" cx="25" cy="25" r="25" transform="translate(15278 4505)" fill="#397539"/>
  </g>
</svg>
