<svg xmlns="http://www.w3.org/2000/svg" width="28" height="28" viewBox="0 0 28 28">
  <g id="home_active" transform="translate(-34 -720)">
    <rect id="Rectangle_37" data-name="Rectangle 37" width="28" height="28" transform="translate(34 720)" fill="none"/>
    <g id="Group_292" data-name="Group 292" transform="translate(-16.142 0)">
      <path id="Path_405" data-name="Path 405" d="M59.845,726.5a16.986,16.986,0,0,0,6.909,4.415,23.859,23.859,0,0,0,6.009,1.361v-1.361L68.27,726.5l-3.7-3.551-1.535.68Z" fill="#d6eaff" opacity="0.3"/>
      <path id="Path_402" data-name="Path 402" d="M1.512.155S3.747,1.433,3.747,3.19,2.9,6.372,1.863,6.372s-2.205-.2-2.205-1.959S1.512.155,1.512.155Z" transform="translate(63.758 734.168) rotate(7)" fill="#3297ff"/>
      <path id="plumbing" d="M23.354,11.73a.923.923,0,0,1-1.305,0l-.73-.735V15.32a.923.923,0,1,1-1.846,0V9.133L12.455,2.068a.922.922,0,0,0-1.2,0l-7.1,7.091c0,.009,0,.018,0,.027V19.934A1.848,1.848,0,0,0,6,21.78H17.627a1.848,1.848,0,0,0,1.846-1.846.923.923,0,1,1,1.846,0,3.7,3.7,0,0,1-3.691,3.691H6a3.7,3.7,0,0,1-3.691-3.691V11l-.732.731a.923.923,0,1,1-1.3-1.306L9.975.737,10.013.7A2.766,2.766,0,0,1,13.7.709l.038.036,9.616,9.679A.923.923,0,0,1,23.354,11.73ZM12.447,9.3c.032.035.792.865,1.562,1.906a6.835,6.835,0,0,1,1.681,3.559v.092a3.922,3.922,0,1,1-7.844,0v-.092a6.836,6.836,0,0,1,1.68-3.559c.77-1.041,1.53-1.871,1.562-1.906a.923.923,0,0,1,1.36,0Zm.078,3c-.264-.357-.529-.689-.758-.967-.232.281-.5.618-.767.979-1.246,1.688-1.31,2.336-1.31,2.449v.092a2.076,2.076,0,0,0,4.153,0v-.092C13.844,14.653,13.78,14,12.525,12.305Zm0,0" transform="translate(52.328 722.188)" fill="#fff"/>
    </g>
  </g>
</svg>
