<?xml version="1.0" standalone="no"?>
<!DOCTYPE svg PUBLIC "-//W3C//DTD SVG 20010904//EN"
 "http://www.w3.org/TR/2001/REC-SVG-20010904/DTD/svg10.dtd">
<svg version="1.0" xmlns="http://www.w3.org/2000/svg"
 width="400.000000pt" height="82.000000pt" viewBox="0 0 400.000000 82.000000"
 preserveAspectRatio="xMidYMid meet">

<g transform="translate(0.000000,82.000000) scale(0.100000,-0.100000)"
fill="#000000" stroke="none">
<path d="M1030 578 l0 -128 45 0 45 0 0 46 c0 45 0 45 33 42 30 -3 32 -6 35
-45 3 -43 3 -43 43 -43 l39 0 0 129 0 129 -40 -1 -40 -2 0 -42 c0 -42 0 -43
-35 -43 -35 0 -35 1 -35 43 l0 42 -45 0 -45 0 0 -127z"/>
<path d="M1413 702 c-24 -2 -43 -5 -43 -8 0 -9 -30 -200 -35 -221 -5 -21 -2
-23 39 -23 l44 0 9 68 9 67 20 -65 c18 -60 22 -65 48 -65 27 0 31 5 51 65 l22
65 6 -40 c4 -22 7 -52 7 -67 0 -26 3 -28 45 -28 25 0 45 3 45 6 0 13 -41 238
-45 243 -2 4 -23 5 -48 3 l-45 -4 -17 -66 -18 -66 -13 34 c-7 19 -13 44 -13
56 -2 35 -22 49 -68 46z"/>
<path d="M1716 703 c-2 -3 15 -60 38 -126 l43 -122 41 -3 c41 -3 41 -3 52 40
25 97 26 98 38 40 7 -29 12 -60 12 -67 0 -11 12 -15 44 -15 l43 0 42 118 c22
64 41 122 41 127 0 6 -19 10 -42 9 l-43 -1 -17 -62 c-9 -35 -19 -68 -21 -74
-2 -7 -12 21 -22 61 l-17 73 -37 -3 c-36 -3 -36 -3 -51 -70 -8 -38 -17 -68
-21 -68 -4 0 -13 32 -20 72 l-14 72 -42 2 c-23 1 -44 -1 -47 -3z"/>
<path d="M2216 695 c-39 -21 -55 -44 -56 -81 0 -36 12 -49 63 -67 20 -6 35
-16 34 -22 -2 -11 -44 -12 -67 -1 -11 4 -19 -3 -28 -26 -6 -17 -10 -33 -8 -36
7 -6 110 -17 133 -14 34 5 73 47 73 80 0 39 -18 60 -65 76 -55 19 -60 41 -8
33 36 -6 41 -4 52 19 6 15 10 28 9 29 -34 28 -90 32 -132 10z"/>
<path d="M2462 691 c-71 -45 -63 -123 14 -143 24 -7 44 -18 44 -25 0 -16 -44
-17 -71 -3 -16 9 -21 7 -29 -15 -15 -40 -13 -43 32 -55 81 -22 158 15 160 78
1 40 -23 68 -68 79 -47 11 -43 28 6 26 33 -1 39 2 45 24 8 34 -4 44 -57 50
-32 3 -52 -1 -76 -16z"/>
<path d="M2670 578 l0 -128 84 0 c69 0 88 4 110 21 32 25 34 61 5 88 -20 18
-20 20 -4 45 37 56 -6 92 -117 98 l-78 4 0 -128z m117 56 c8 -21 -13 -42 -28
-27 -13 13 -5 43 11 43 6 0 13 -7 17 -16z m13 -103 c0 -10 -9 -21 -19 -24 -24
-6 -31 0 -31 25 0 13 7 18 25 18 18 0 25 -5 25 -19z"/>
<path d="M435 550 c-4 -6 22 -10 70 -10 48 0 74 4 70 10 -3 6 -35 10 -70 10
-35 0 -67 -4 -70 -10z"/>
<path d="M410 480 c0 -33 3 -40 20 -40 17 0 20 7 20 40 0 33 -3 40 -20 40 -17
0 -20 -7 -20 -40z"/>
<path d="M470 480 c0 -39 1 -40 35 -40 34 0 35 1 35 40 0 39 -1 40 -35 40 -34
0 -35 -1 -35 -40z"/>
<path d="M560 480 c0 -33 3 -40 20 -40 17 0 20 7 20 40 0 33 -3 40 -20 40 -17
0 -20 -7 -20 -40z"/>
<path d="M103 432 c-49 -26 -51 -28 -36 -47 8 -11 20 -28 28 -38 12 -17 14
-17 48 -1 48 23 70 15 162 -62 l80 -66 3 57 c3 64 10 55 -102 135 -81 59 -107
62 -183 22z"/>
<path d="M739 423 c-119 -81 -129 -92 -129 -150 0 -29 4 -53 9 -53 4 0 28 17
52 38 69 61 130 102 151 102 10 0 32 -7 48 -15 28 -14 29 -14 59 23 l30 38
-55 27 c-73 36 -101 34 -165 -10z"/>
<path d="M450 410 c0 -5 25 -10 55 -10 30 0 55 5 55 10 0 6 -25 10 -55 10 -30
0 -55 -4 -55 -10z"/>
<path d="M1586 368 c-24 -57 -28 -78 -17 -78 6 0 11 5 11 10 0 6 11 10 24 10
14 0 28 -4 31 -10 3 -5 10 -10 14 -10 5 0 0 25 -12 55 -11 30 -24 55 -29 55
-5 0 -15 -15 -22 -32z m34 -24 c0 -8 -7 -14 -15 -14 -17 0 -18 2 -9 24 7 18
24 12 24 -10z"/>
<path d="M1813 383 c-3 -10 -12 -33 -20 -52 -7 -19 -10 -37 -7 -40 4 -3 9 0
11 7 6 15 45 16 61 0 20 -20 21 -5 0 50 -20 54 -34 65 -45 35z m27 -39 c0 -8
-6 -14 -14 -14 -9 0 -12 7 -9 20 6 22 23 18 23 -6z"/>
<path d="M2542 384 c-24 -17 -30 -62 -10 -82 7 -7 24 -12 40 -12 48 0 66 66
26 94 -12 9 -25 16 -28 16 -3 0 -16 -7 -28 -16z m46 -16 c28 -28 -3 -83 -33
-58 -8 7 -15 20 -15 29 0 17 18 41 30 41 3 0 11 -5 18 -12z"/>
<path d="M2760 380 c-11 -11 -20 -29 -20 -39 0 -41 59 -68 88 -39 17 17 15 64
-4 82 -21 21 -40 20 -64 -4z m55 -40 c0 -41 -27 -53 -45 -21 -14 27 4 64 28
59 12 -2 17 -13 17 -38z"/>
<path d="M3123 345 c-12 -30 -19 -55 -18 -55 1 0 16 7 31 15 26 13 30 13 41
-2 7 -9 15 -14 18 -11 8 8 -28 101 -41 105 -6 2 -20 -21 -31 -52z m35 -14
c-15 -5 -21 7 -13 26 7 17 8 17 15 -2 4 -11 3 -22 -2 -24z"/>
<path d="M1020 340 c0 -27 5 -50 10 -50 6 0 10 9 10 20 0 15 7 20 25 20 18 0
25 -5 25 -20 0 -11 5 -20 10 -20 6 0 10 23 10 50 0 28 -4 50 -10 50 -5 0 -10
-9 -10 -20 0 -14 -7 -20 -21 -20 -12 0 -23 8 -26 20 -10 37 -23 20 -23 -30z"/>
<path d="M1140 386 c0 -2 7 -17 15 -32 8 -16 15 -37 15 -46 0 -10 5 -18 10
-18 6 0 10 9 10 20 0 12 7 34 15 50 9 18 11 30 5 30 -6 0 -14 -10 -19 -22 l-8
-22 -12 22 c-10 18 -31 31 -31 18z"/>
<path d="M1250 340 c0 -49 1 -50 29 -50 35 0 61 23 61 54 0 31 -19 46 -57 46
-33 0 -33 0 -33 -50z m58 28 c18 -18 14 -46 -7 -58 -29 -15 -31 -13 -31 30 0
41 14 52 38 28z"/>
<path d="M1370 340 c0 -50 0 -50 33 -49 29 0 30 1 10 9 -28 12 -30 30 -3 30
11 0 20 5 20 10 0 6 -9 10 -20 10 -27 0 -25 18 3 30 20 8 19 9 -10 9 -33 1
-33 1 -33 -49z"/>
<path d="M1460 340 c0 -27 5 -50 10 -50 6 0 10 9 10 20 0 11 4 20 10 20 5 0
14 -9 20 -20 6 -11 15 -20 21 -20 6 0 6 7 -1 19 -5 11 -7 33 -4 50 6 30 5 31
-30 31 l-36 0 0 -50z m48 23 c-4 -22 -22 -20 -26 1 -2 10 3 16 13 16 10 0 15
-7 13 -17z"/>
<path d="M1680 340 l0 -50 34 0 c39 0 52 12 40 38 -4 9 -6 27 -5 40 2 19 -2
22 -33 22 l-36 0 0 -50z m50 25 c0 -8 -7 -15 -15 -15 -16 0 -20 12 -8 23 11
12 23 8 23 -8z m8 -47 c-3 -7 -11 -13 -18 -13 -7 0 -15 6 -17 13 -3 7 4 12 17
12 13 0 20 -5 18 -12z"/>
<path d="M1900 340 l0 -50 35 0 c45 0 74 38 57 75 -10 21 -19 25 -52 25 l-40
0 0 -50z m54 34 c21 -8 21 -60 0 -68 -23 -9 -34 2 -34 33 0 38 7 45 34 35z"/>
<path d="M2080 340 c0 -30 4 -50 11 -50 7 0 9 11 6 30 -4 16 -2 32 2 35 5 2
12 -11 15 -31 9 -43 25 -40 42 7 l12 34 1 -37 c1 -57 21 -45 21 12 0 61 -20
68 -42 13 l-14 -38 -13 38 c-19 55 -41 49 -41 -13z"/>
<path d="M2230 340 l0 -50 33 1 c23 1 26 3 10 6 -25 5 -32 33 -8 33 8 0 15 5
15 10 0 6 -7 10 -15 10 -24 0 -17 28 8 33 16 3 13 5 -10 6 l-33 1 0 -50z"/>
<path d="M2323 383 c13 -3 17 -15 17 -49 0 -24 5 -44 10 -44 6 0 10 20 10 44
0 34 4 46 18 49 9 3 -3 5 -28 5 -25 0 -37 -2 -27 -5z"/>
<path d="M2420 340 c0 -27 5 -50 10 -50 6 0 10 9 10 20 0 11 4 20 9 20 5 0 13
-9 16 -20 3 -11 13 -20 22 -20 14 0 14 2 0 24 -11 16 -13 26 -5 34 18 18 1 42
-32 42 -29 0 -30 -1 -30 -50z m45 20 c0 -7 -6 -15 -12 -17 -8 -3 -13 4 -13 17
0 13 5 20 13 18 6 -3 12 -11 12 -18z"/>
<path d="M2650 341 c0 -28 5 -51 10 -51 6 0 10 9 10 19 0 13 8 21 23 23 16 2
22 10 22 28 0 21 -5 26 -32 28 l-33 3 0 -50z m45 19 c0 -7 -6 -15 -12 -17 -8
-3 -13 4 -13 17 0 13 5 20 13 18 6 -3 12 -11 12 -18z"/>
<path d="M2870 340 c0 -50 0 -50 33 -49 29 0 30 1 10 9 -19 8 -23 17 -23 50 0
22 -4 40 -10 40 -5 0 -10 -22 -10 -50z"/>
<path d="M2955 340 c0 -38 4 -50 15 -50 11 0 15 12 15 50 0 38 -4 50 -15 50
-11 0 -15 -12 -15 -50z"/>
<path d="M3023 379 c11 -7 17 -22 17 -49 0 -22 5 -40 10 -40 6 0 10 20 10 44
0 34 4 46 18 49 9 3 -3 5 -28 6 -35 0 -41 -2 -27 -10z"/>
<path d="M3230 340 c0 -27 5 -50 10 -50 6 0 10 17 10 37 l0 38 25 -38 c14 -20
30 -37 35 -37 6 0 10 23 10 50 0 55 -17 69 -22 18 l-3 -33 -18 33 c-27 49 -47
42 -47 -18z"/>
<path d="M432 368 c-23 -23 -11 -28 73 -28 83 0 85 1 75 20 -9 17 -21 20 -73
20 -36 0 -68 -5 -75 -12z"/>
<path d="M410 240 l0 -80 95 0 95 0 0 80 0 80 -95 0 -95 0 0 -80z"/>
<path d="M1020 221 c0 -33 24 -101 36 -101 7 0 16 16 20 35 7 41 19 38 28 -6
3 -18 11 -29 18 -27 15 5 40 98 27 98 -5 0 -12 -13 -15 -30 -8 -37 -22 -39
-26 -3 -5 44 -34 41 -43 -4 l-8 -38 -11 37 c-12 38 -26 60 -26 39z"/>
<path d="M1195 179 c-9 -28 -14 -53 -11 -56 3 -3 8 2 12 11 8 20 54 22 54 1 0
-8 5 -15 10 -15 14 0 13 7 -7 63 -9 26 -22 47 -29 47 -7 0 -20 -23 -29 -51z
m45 -11 c0 -5 -7 -8 -15 -8 -15 0 -20 21 -8 33 7 7 23 -11 23 -25z"/>
<path d="M1495 222 c-10 -10 -5 -102 5 -102 6 0 10 9 10 20 0 11 4 20 10 20 5
0 14 -9 20 -20 6 -11 16 -20 22 -20 6 0 4 10 -6 24 -10 15 -12 27 -6 31 22 14
10 43 -20 47 -17 3 -32 2 -35 0z m45 -27 c0 -8 -7 -15 -15 -15 -8 0 -15 7 -15
15 0 8 7 15 15 15 8 0 15 -7 15 -15z"/>
<path d="M1652 218 c-19 -19 -14 -34 14 -53 20 -13 23 -19 14 -25 -7 -5 -19
-6 -27 -3 -7 3 -13 0 -13 -6 0 -15 43 -14 58 1 19 19 14 34 -13 46 -30 14 -33
32 -5 32 11 0 20 5 20 10 0 14 -33 13 -48 -2z"/>
<path d="M1740 181 c0 -41 4 -51 20 -56 11 -3 29 -3 40 0 16 5 20 15 20 56 0
31 -4 48 -10 44 -5 -3 -10 -23 -10 -44 0 -42 -6 -52 -26 -44 -9 3 -14 20 -14
43 0 22 -4 42 -10 45 -6 4 -10 -13 -10 -44z"/>
<path d="M1966 223 c-10 -11 -7 -103 4 -103 6 0 10 9 10 20 0 13 7 20 20 20
22 0 42 30 32 47 -8 13 -57 24 -66 16z m42 -30 c-5 -25 -28 -28 -28 -4 0 12 6
21 16 21 9 0 14 -7 12 -17z"/>
<path d="M2313 219 c-6 -6 -9 -18 -6 -25 3 -8 0 -21 -7 -29 -21 -25 4 -43 60
-42 28 0 50 4 50 9 0 4 -8 8 -17 8 -13 0 -14 3 -5 12 15 15 16 48 2 48 -5 0
-10 -9 -10 -20 0 -13 -5 -17 -14 -14 -8 3 -14 17 -13 32 2 29 -20 41 -40 21z
m28 -22 c-13 -13 -26 -3 -16 12 3 6 11 8 17 5 6 -4 6 -10 -1 -17z m15 -38 c9
-16 -18 -30 -33 -17 -7 6 -10 14 -7 19 7 13 31 11 40 -2z"/>
<path d="M2498 219 c-26 -14 -22 -38 7 -51 38 -17 30 -34 -12 -29 -7 1 -13 -3
-13 -9 0 -7 14 -10 33 -8 42 4 50 39 12 56 -26 12 -26 32 1 32 8 0 14 5 14 10
0 13 -20 12 -42 -1z"/>
<path d="M2603 222 c-20 -3 -23 -9 -23 -53 0 -48 1 -49 30 -49 17 0 30 5 30
10 0 6 -9 10 -20 10 -27 0 -25 28 3 33 l22 4 -22 2 c-13 0 -23 7 -23 15 0 8
10 16 23 18 12 2 18 5 12 9 -5 3 -20 3 -32 1z"/>
<path d="M2721 211 c-6 -11 -11 -27 -11 -35 0 -9 -4 -16 -10 -16 -5 0 -10 11
-10 24 0 23 -16 44 -26 34 -8 -8 22 -92 34 -96 7 -2 15 9 18 27 9 45 22 47 30
6 9 -50 30 -43 44 16 12 48 7 83 -6 43 -18 -57 -22 -61 -29 -26 -9 40 -21 48
-34 23z"/>
<path d="M3047 203 c-20 -39 -29 -83 -18 -83 5 0 11 7 15 15 7 20 36 19 52 -2
18 -24 18 -1 0 52 -17 49 -31 54 -49 18z m33 -29 c0 -8 -7 -14 -15 -14 -17 0
-18 2 -9 24 7 18 24 12 24 -10z"/>
<path d="M3162 214 c-47 -33 -17 -100 41 -92 31 4 38 58 8 58 -23 0 -28 -16
-8 -23 9 -4 9 -7 0 -17 -18 -19 -45 6 -41 39 2 20 9 27 31 29 15 2 25 8 22 13
-9 13 -28 11 -53 -7z"/>
<path d="M3418 222 c-14 -3 -18 -14 -18 -53 l0 -50 33 3 c31 3 32 5 33 50 2
48 -9 59 -48 50z m30 -24 c-6 -18 -28 -21 -28 -4 0 9 7 16 16 16 9 0 14 -5 12
-12z m0 -46 c2 -7 -3 -12 -12 -12 -9 0 -16 7 -16 16 0 17 22 14 28 -4z"/>
<path d="M3522 214 c-39 -27 -19 -94 28 -94 47 0 67 67 28 94 -12 9 -25 16
-28 16 -3 0 -16 -7 -28 -16z m53 -39 c0 -25 -4 -30 -25 -30 -16 0 -26 6 -28
18 -6 30 6 49 30 45 18 -2 23 -9 23 -33z"/>
<path d="M3646 198 c-23 -55 -28 -78 -18 -78 6 0 12 7 16 15 7 19 42 19 50 0
3 -8 10 -15 15 -15 13 0 -22 103 -37 108 -7 2 -18 -11 -26 -30z m34 -24 c0 -8
-7 -14 -15 -14 -17 0 -18 2 -9 24 7 18 24 12 24 -10z"/>
<path d="M3758 222 c-14 -3 -18 -14 -18 -53 0 -27 5 -49 10 -49 6 0 10 9 10
20 0 11 6 20 14 20 8 0 18 -9 21 -20 3 -11 11 -20 17 -20 6 0 7 7 3 18 -8 18
-8 25 -3 56 3 20 -25 35 -54 28z m35 -27 c1 -5 -6 -11 -15 -13 -11 -2 -18 3
-18 13 0 17 30 18 33 0z"/>
<path d="M1303 213 c13 -3 17 -15 17 -49 0 -24 5 -44 10 -44 6 0 10 20 10 44
0 34 4 46 18 49 9 3 -3 5 -28 5 -25 0 -37 -2 -27 -5z"/>
<path d="M1400 170 c0 -49 1 -50 30 -50 17 0 30 5 30 10 0 6 -9 10 -20 10 -27
0 -25 28 3 33 l22 4 -22 2 c-13 0 -23 7 -23 15 0 8 10 17 23 19 16 3 13 5 -10
6 l-33 1 0 -50z"/>
<path d="M1860 171 c0 -28 5 -51 10 -51 6 0 10 9 10 19 0 12 9 21 26 25 19 5
25 12 22 29 -2 17 -11 23 -35 25 l-33 3 0 -50z m48 22 c-5 -25 -28 -28 -28 -4
0 12 6 21 16 21 9 0 14 -7 12 -17z"/>
<path d="M2060 170 c0 -49 1 -50 30 -50 17 0 30 5 30 10 0 6 -9 10 -20 10 -17
0 -20 7 -20 40 0 22 -4 40 -10 40 -5 0 -10 -22 -10 -50z"/>
<path d="M2155 190 c8 -16 15 -38 15 -50 0 -11 5 -20 10 -20 6 0 10 9 10 20 0
12 7 34 15 50 16 32 3 42 -15 13 -10 -17 -10 -17 -20 0 -18 29 -31 19 -15 -13z"/>
<path d="M2830 170 c0 -49 1 -50 30 -50 17 0 30 5 30 10 0 6 -9 10 -20 10 -27
0 -25 28 3 33 l22 4 -22 2 c-13 0 -23 7 -23 15 0 8 10 17 23 19 16 3 13 5 -10
6 l-33 1 0 -50z"/>
<path d="M2920 170 c0 -27 5 -50 10 -50 6 0 10 9 10 20 0 26 14 25 33 -2 8
-13 18 -20 22 -16 4 4 3 14 -4 21 -6 8 -8 27 -5 46 6 30 6 31 -30 31 l-36 0 0
-50z m50 25 c0 -8 -7 -15 -15 -15 -8 0 -15 7 -15 15 0 8 7 15 15 15 8 0 15 -7
15 -15z"/>
<path d="M3260 170 c0 -49 1 -50 30 -50 17 0 30 5 30 10 0 6 -9 10 -20 10 -27
0 -25 28 3 33 l22 4 -22 2 c-13 0 -23 7 -23 15 0 8 10 17 23 19 16 3 13 5 -10
6 l-33 1 0 -50z"/>
<path d="M3850 171 c0 -49 1 -51 28 -51 44 0 64 20 60 60 -3 33 -5 35 -45 38
l-43 3 0 -50z m65 4 c0 -23 -5 -31 -22 -33 -20 -3 -23 1 -23 33 0 32 3 36 23
33 17 -2 22 -10 22 -33z"/>
<path d="M430 130 c0 -13 137 -13 145 0 4 6 -22 10 -69 10 -44 0 -76 -4 -76
-10z"/>
<path d="M450 100 c0 -5 25 -10 56 -10 34 0 53 4 49 10 -3 6 -28 10 -56 10
-27 0 -49 -4 -49 -10z"/>
</g>
</svg>
