<?xml version="1.0" encoding="UTF-8"?>
<!DOCTYPE svg PUBLIC "-//W3C//DTD SVG 1.1//EN" "http://www.w3.org/Graphics/SVG/1.1/DTD/svg11.dtd">
<svg xmlns="http://www.w3.org/2000/svg" version="1.1" width="400px" height="82px" style="shape-rendering:geometricPrecision; text-rendering:geometricPrecision; image-rendering:optimizeQuality; fill-rule:evenodd; clip-rule:evenodd" xmlns:xlink="http://www.w3.org/1999/xlink">
<g><path style="opacity:1" fill="#fcfdfd" d="M -0.5,-0.5 C 132.833,-0.5 266.167,-0.5 399.5,-0.5C 399.5,26.8333 399.5,54.1667 399.5,81.5C 266.167,81.5 132.833,81.5 -0.5,81.5C -0.5,54.1667 -0.5,26.8333 -0.5,-0.5 Z"/></g>
<g><path style="opacity:1" fill="#aca8a9" d="M 61.5,9.5 C 65.8333,9.5 70.1667,9.5 74.5,9.5C 74.6664,18.5062 74.4998,27.5062 74,36.5C 72.0077,37.3281 70.5077,38.6614 69.5,40.5C 66.3567,41.1335 63.8567,42.8002 62,45.5C 61.5001,33.5046 61.3335,21.5046 61.5,9.5 Z"/></g>
<g><path style="opacity:1" fill="#11538a" d="M 111.5,19.5 C 109.912,18.3587 108.579,16.8587 107.5,15C 106.207,14.51 104.873,14.3433 103.5,14.5C 103.203,21.9204 103.536,29.2537 104.5,36.5C 103.833,36.5 103.167,36.5 102.5,36.5C 102.5,27.8333 102.5,19.1667 102.5,10.5C 105.5,10.5 108.5,10.5 111.5,10.5C 111.5,13.5 111.5,16.5 111.5,19.5 Z"/></g>
<g><path style="opacity:1" fill="#518fbd" d="M 126.5,10.5 C 126.5,10.8333 126.5,11.1667 126.5,11.5C 123.833,11.5 121.167,11.5 118.5,11.5C 118.806,14.3854 118.473,17.0521 117.5,19.5C 117.5,16.5 117.5,13.5 117.5,10.5C 120.5,10.5 123.5,10.5 126.5,10.5 Z"/></g>
<g><path style="opacity:1" fill="#185895" d="M 136.5,10.5 C 139.833,10.5 143.167,10.5 146.5,10.5C 147.666,14.8199 148.832,19.1533 150,23.5C 150.744,21.1003 151.577,18.767 152.5,16.5C 153.249,15.469 153.915,14.3024 154.5,13C 157.146,12.5026 159.813,12.3359 162.5,12.5C 163.76,19.1714 163.76,25.8381 162.5,32.5C 164.514,32.3915 166.18,33.0582 167.5,34.5C 167.5,35.5 167.5,36.5 167.5,37.5C 164.5,37.5 161.5,37.5 158.5,37.5C 158.425,22.0941 156.592,21.7608 153,36.5C 150.959,37.4231 148.792,37.7564 146.5,37.5C 145.961,32.6786 144.795,28.0119 143,23.5C 142.582,27.1782 142.082,30.8449 141.5,34.5C 141.36,36.0296 140.693,37.0296 139.5,37.5C 137.167,37.5 134.833,37.5 132.5,37.5C 132.5,36.5 132.5,35.5 132.5,34.5C 133.987,26.6411 135.32,18.6411 136.5,10.5 Z"/></g>
<g><path style="opacity:1" fill="#7babd2" d="M 281.5,11.5 C 276.5,11.5 271.5,11.5 266.5,11.5C 266.5,19.8333 266.5,28.1667 266.5,36.5C 271.833,36.5 277.167,36.5 282.5,36.5C 277.025,37.4889 271.358,37.8222 265.5,37.5C 265.5,35.8333 265.5,34.1667 265.5,32.5C 265.5,25.1667 265.5,17.8333 265.5,10.5C 271.026,10.1786 276.36,10.5119 281.5,11.5 Z"/></g>
<g><path style="opacity:1" fill="#055395" d="M 126.5,11.5 C 126.5,19.8333 126.5,28.1667 126.5,36.5C 123.833,36.5 121.167,36.5 118.5,36.5C 118.5,33.5 118.5,30.5 118.5,27.5C 116.167,27.5 113.833,27.5 111.5,27.5C 111.5,30.5 111.5,33.5 111.5,36.5C 109.167,36.5 106.833,36.5 104.5,36.5C 103.536,29.2537 103.203,21.9204 103.5,14.5C 104.873,14.3433 106.207,14.51 107.5,15C 108.579,16.8587 109.912,18.3587 111.5,19.5C 113.5,19.5 115.5,19.5 117.5,19.5C 118.473,17.0521 118.806,14.3854 118.5,11.5C 121.167,11.5 123.833,11.5 126.5,11.5 Z"/></g>
<g><path style="opacity:1" fill="#c8e3ef" d="M 136.5,10.5 C 135.32,18.6411 133.987,26.6411 132.5,34.5C 132.428,28.4547 132.928,22.4547 134,16.5C 134.002,13.9488 134.836,11.9488 136.5,10.5 Z"/></g>
<g><path style="opacity:1" fill="#265d90" d="M 163.5,10.5 C 165.153,18.4444 166.486,26.4444 167.5,34.5C 166.18,33.0582 164.514,32.3915 162.5,32.5C 163.76,25.8381 163.76,19.1714 162.5,12.5C 159.813,12.3359 157.146,12.5026 154.5,13C 153.915,14.3024 153.249,15.469 152.5,16.5C 152.357,14.7376 152.691,13.0709 153.5,11.5C 156.768,10.513 160.102,10.1796 163.5,10.5 Z"/></g>
<g><path style="opacity:1" fill="#155696" d="M 257.5,35.5 C 252.264,37.9131 246.931,38.0797 241.5,36C 240.55,33.5679 240.55,31.0679 241.5,28.5C 244.587,30.017 247.921,30.6837 251.5,30.5C 251.5,29.5 251.5,28.5 251.5,27.5C 242.638,27.4477 239.305,23.1144 241.5,14.5C 246.942,10.5307 252.942,9.5307 259.5,11.5C 259.326,13.861 258.993,16.1944 258.5,18.5C 255.833,18.1667 253.167,17.8333 250.5,17.5C 250.5,18.5 250.5,19.5 250.5,20.5C 261.831,21.4908 264.164,26.4908 257.5,35.5 Z"/></g>
<g><path style="opacity:1" fill="#0d5494" d="M 281.5,11.5 C 288.109,13.9323 289.109,17.9323 284.5,23.5C 288.007,25.4607 289.34,28.4607 288.5,32.5C 286.94,34.4288 284.94,35.7622 282.5,36.5C 277.167,36.5 271.833,36.5 266.5,36.5C 266.5,28.1667 266.5,19.8333 266.5,11.5C 271.5,11.5 276.5,11.5 281.5,11.5 Z"/></g>
<g><path style="opacity:1" fill="#e0f4f9" d="M 275.5,17.5 C 276.5,17.5 277.5,17.5 278.5,17.5C 278.5,18.5 278.5,19.5 278.5,20.5C 277.5,20.5 276.5,20.5 275.5,20.5C 275.5,19.5 275.5,18.5 275.5,17.5 Z"/></g>
<g><path style="opacity:1" fill="#e4f4f9" d="M 275.5,26.5 C 279.035,26.3369 280.035,27.6702 278.5,30.5C 277.5,30.5 276.5,30.5 275.5,30.5C 275.5,29.1667 275.5,27.8333 275.5,26.5 Z"/></g>
<g><path style="opacity:1" fill="#6591af" d="M 275.5,26.5 C 275.5,27.8333 275.5,29.1667 275.5,30.5C 276.5,30.5 277.5,30.5 278.5,30.5C 277.432,31.4345 276.099,31.7678 274.5,31.5C 274.216,29.5853 274.549,27.9187 275.5,26.5 Z"/></g>
<g><path style="opacity:1" fill="#779cb7" d="M 126.5,10.5 C 127.493,19.3178 127.827,28.3178 127.5,37.5C 124.167,37.5 120.833,37.5 117.5,37.5C 117.5,34.5 117.5,31.5 117.5,28.5C 115.833,28.5 114.167,28.5 112.5,28.5C 112.81,31.7131 112.477,34.7131 111.5,37.5C 108.5,37.5 105.5,37.5 102.5,37.5C 102.5,37.1667 102.5,36.8333 102.5,36.5C 103.167,36.5 103.833,36.5 104.5,36.5C 106.833,36.5 109.167,36.5 111.5,36.5C 111.5,33.5 111.5,30.5 111.5,27.5C 113.833,27.5 116.167,27.5 118.5,27.5C 118.5,30.5 118.5,33.5 118.5,36.5C 121.167,36.5 123.833,36.5 126.5,36.5C 126.5,28.1667 126.5,19.8333 126.5,11.5C 126.5,11.1667 126.5,10.8333 126.5,10.5 Z"/></g>
<g><path style="opacity:1" fill="#145695" d="M 21.5,35.5 C 27.4513,39.45 33.1179,43.7833 38.5,48.5C 38.815,52.3714 38.4816,56.0381 37.5,59.5C 31.9962,54.8334 26.3295,50.3334 20.5,46C 16.5764,45.8262 12.9097,46.4929 9.5,48C 7.83333,45.6667 6.16667,43.3333 4.5,41C 7.83333,39 11.1667,37 14.5,35C 17.0385,34.2042 19.3718,34.3709 21.5,35.5 Z"/></g>
<g><path style="opacity:1" fill="#e0ebf1" d="M 25.5,8.5 C 25.1684,17.8571 25.5017,27.1904 26.5,36.5C 30.1667,39.1667 33.8333,41.8333 37.5,44.5C 38.499,32.5185 38.8323,20.5185 38.5,8.5C 39.4849,12.6344 39.8182,16.9677 39.5,21.5C 40.5,21.5 41.5,21.5 42.5,21.5C 42.5,22.5 42.5,23.5 42.5,24.5C 47.3633,24.1805 52.03,24.5139 56.5,25.5C 51.737,25.2256 47.0704,25.559 42.5,26.5C 41.5987,27.2905 40.9321,28.2905 40.5,29.5C 40.5,32.1667 40.5,34.8333 40.5,37.5C 41.8333,38.1667 43.1667,38.8333 44.5,39.5C 44.5,40.1667 44.5,40.8333 44.5,41.5C 47.9619,42.4816 51.6286,42.815 55.5,42.5C 55.5,41.1667 55.5,39.8333 55.5,38.5C 57.099,38.7678 58.4324,38.4345 59.5,37.5C 59.5,34.8333 59.5,32.1667 59.5,29.5C 60.1667,22.8333 60.8333,16.1667 61.5,9.5C 61.3335,21.5046 61.5001,33.5046 62,45.5C 63.8567,42.8002 66.3567,41.1335 69.5,40.5C 67.1663,43.6662 64.3329,46.3329 61,48.5C 60.3333,52.5 60.3333,56.5 61,60.5C 61.3826,59.944 61.8826,59.6107 62.5,59.5C 61.478,61.5439 60.478,63.5439 59.5,65.5C 59.5,59.8333 59.5,54.1667 59.5,48.5C 53.1667,48.5 46.8333,48.5 40.5,48.5C 40.5,54.1667 40.5,59.8333 40.5,65.5C 39.5489,64.0813 39.2155,62.4147 39.5,60.5C 39.8168,56.2984 39.4834,52.2984 38.5,48.5C 33.1179,43.7833 27.4513,39.45 21.5,35.5C 22.5,35.5 23.5,35.5 24.5,35.5C 24.1734,26.3178 24.5067,17.3178 25.5,8.5 Z"/></g>
<g><path style="opacity:1" fill="#bad7e5" d="M 56.5,25.5 C 58.2014,26.2114 59.2014,27.5447 59.5,29.5C 57.8333,29.5 56.1667,29.5 54.5,29.5C 54.5,32.1667 54.5,34.8333 54.5,37.5C 56.1667,37.5 57.8333,37.5 59.5,37.5C 58.4324,38.4345 57.099,38.7678 55.5,38.5C 55.5,39.8333 55.5,41.1667 55.5,42.5C 51.6286,42.815 47.9619,42.4816 44.5,41.5C 57.8333,40.8333 57.8333,40.1667 44.5,39.5C 43.1667,38.8333 41.8333,38.1667 40.5,37.5C 41.8333,37.5 43.1667,37.5 44.5,37.5C 44.5,34.8333 44.5,32.1667 44.5,29.5C 43.1667,29.5 41.8333,29.5 40.5,29.5C 40.9321,28.2905 41.5987,27.2905 42.5,26.5C 47.3158,27.6497 52.3158,27.8163 57.5,27C 56.944,26.6174 56.6107,26.1174 56.5,25.5 Z"/></g>
<g><path style="opacity:1" fill="#547aa1" d="M 59.5,29.5 C 59.5,32.1667 59.5,34.8333 59.5,37.5C 57.8333,37.5 56.1667,37.5 54.5,37.5C 54.5,34.8333 54.5,32.1667 54.5,29.5C 56.1667,29.5 57.8333,29.5 59.5,29.5 Z"/></g>
<g><path style="opacity:1" fill="#074f94" d="M 55.5,30.5 C 56.5,30.5 57.5,30.5 58.5,30.5C 58.5,32.5 58.5,34.5 58.5,36.5C 57.5,36.5 56.5,36.5 55.5,36.5C 55.5,34.5 55.5,32.5 55.5,30.5 Z"/></g>
<g><path style="opacity:1" fill="#065294" d="M 46.5,30.5 C 48.5,30.5 50.5,30.5 52.5,30.5C 52.5,32.5 52.5,34.5 52.5,36.5C 50.5,36.5 48.5,36.5 46.5,36.5C 46.5,34.5 46.5,32.5 46.5,30.5 Z"/></g>
<g><path style="opacity:1" fill="#21588b" d="M 40.5,29.5 C 41.8333,29.5 43.1667,29.5 44.5,29.5C 44.5,32.1667 44.5,34.8333 44.5,37.5C 43.1667,37.5 41.8333,37.5 40.5,37.5C 40.5,34.8333 40.5,32.1667 40.5,29.5 Z"/></g>
<g><path style="opacity:1" fill="#346288" d="M 46.5,30.5 C 48.6074,29.5318 50.9407,29.1984 53.5,29.5C 53.5,32.1667 53.5,34.8333 53.5,37.5C 50.9407,37.8016 48.6074,37.4682 46.5,36.5C 48.5,36.5 50.5,36.5 52.5,36.5C 52.5,34.5 52.5,32.5 52.5,30.5C 50.5,30.5 48.5,30.5 46.5,30.5 Z"/></g>
<g><path style="opacity:1" fill="#18548f" d="M 56.5,25.5 C 56.6107,26.1174 56.944,26.6174 57.5,27C 52.3158,27.8163 47.3158,27.6497 42.5,26.5C 47.0704,25.559 51.737,25.2256 56.5,25.5 Z"/></g>
<g><path style="opacity:1" fill="#ada9aa" d="M 25.5,8.5 C 29.8333,8.5 34.1667,8.5 38.5,8.5C 38.8323,20.5185 38.499,32.5185 37.5,44.5C 33.8333,41.8333 30.1667,39.1667 26.5,36.5C 25.5017,27.1904 25.1684,17.8571 25.5,8.5 Z"/></g>
<g><path style="opacity:1" fill="#115994" d="M 44.5,39.5 C 57.8333,40.1667 57.8333,40.8333 44.5,41.5C 44.5,40.8333 44.5,40.1667 44.5,39.5 Z"/></g>
<g><path style="opacity:1" fill="#d8ebf2" d="M 294.5,41.5 C 299.167,40.1667 303.833,40.1667 308.5,41.5C 309.158,42.3984 309.824,43.3984 310.5,44.5C 311.59,43.6086 311.59,42.6086 310.5,41.5C 312.636,40.2072 314.636,40.2072 316.5,41.5C 315.178,41.33 314.011,41.6634 313,42.5C 312.1,45.7177 310.933,48.7177 309.5,51.5C 308.94,49.5152 308.273,47.5152 307.5,45.5C 306.52,48.0865 306.187,50.7531 306.5,53.5C 304.833,53.5 303.167,53.5 301.5,53.5C 301.817,50.4281 301.484,47.4281 300.5,44.5C 299.914,44.7093 299.414,45.0426 299,45.5C 298.505,47.4727 298.338,49.4727 298.5,51.5C 297.217,48.6346 297.217,45.6346 298.5,42.5C 297.311,41.5713 295.978,41.238 294.5,41.5 Z"/></g>
<g><path style="opacity:1" fill="#88a4b9" d="M 329.5,42.5 C 330.209,41.596 331.209,41.2627 332.5,41.5C 332.5,45.5 332.5,49.5 332.5,53.5C 331.209,53.7373 330.209,53.404 329.5,52.5C 330.777,51.3064 331.444,49.6397 331.5,47.5C 331.444,45.3603 330.777,43.6936 329.5,42.5 Z"/></g>
<g><path style="opacity:1" fill="#1d5892" d="M 42.5,43.5 C 47.1785,43.3342 51.8452,43.5008 56.5,44C 57.3567,44.6891 58.0233,45.5224 58.5,46.5C 52.5276,47.6636 46.5276,47.8303 40.5,47C 41.305,45.8873 41.9717,44.7206 42.5,43.5 Z"/></g>
<g><path style="opacity:1" fill="#255c8c" d="M 294.5,41.5 C 295.978,41.238 297.311,41.5713 298.5,42.5C 297.217,45.6346 297.217,48.6346 298.5,51.5C 298.5,51.8333 298.5,52.1667 298.5,52.5C 297.127,52.6567 295.793,52.49 294.5,52C 295.817,49.0635 295.817,46.2301 294.5,43.5C 294.5,42.8333 294.5,42.1667 294.5,41.5 Z"/></g>
<g><path style="opacity:1" fill="#245d8f" d="M 325.5,42.5 C 326.44,44.6125 327.606,46.6125 329,48.5C 329.495,46.5273 329.662,44.5273 329.5,42.5C 330.777,43.6936 331.444,45.3603 331.5,47.5C 331.444,49.6397 330.777,51.3064 329.5,52.5C 328.252,50.3509 326.752,48.3509 325,46.5C 324.505,48.4727 324.338,50.4727 324.5,52.5C 322.598,49.6627 321.931,46.3293 322.5,42.5C 323.5,42.5 324.5,42.5 325.5,42.5 Z"/></g>
<g><path style="opacity:1" fill="#165696" d="M 62.5,59.5 C 61.8826,59.6107 61.3826,59.944 61,60.5C 60.3333,56.5 60.3333,52.5 61,48.5C 64.3329,46.3329 67.1663,43.6662 69.5,40.5C 73.2473,38.1086 77.2473,36.1086 81.5,34.5C 86.2351,36.3655 90.9018,38.5321 95.5,41C 93.4434,43.626 91.2767,46.126 89,48.5C 86.6393,47.4488 84.3059,46.4488 82,45.5C 80.3732,45.6251 78.8732,46.1251 77.5,47C 72.0996,50.6982 67.0996,54.8649 62.5,59.5 Z"/></g>
<g><path style="opacity:1" fill="#32628e" d="M 316.5,41.5 C 317.5,44.8333 318.5,48.1667 319.5,51.5C 319.44,52.0431 319.107,52.3764 318.5,52.5C 317.532,51.5109 316.365,50.8443 315,50.5C 313.2,51.3784 311.367,52.045 309.5,52.5C 309.5,52.1667 309.5,51.8333 309.5,51.5C 310.933,48.7177 312.1,45.7177 313,42.5C 314.011,41.6634 315.178,41.33 316.5,41.5 Z"/></g>
<g><path style="opacity:1" fill="#b7dceb" d="M 314.5,44.5 C 315.782,45.7082 315.782,47.0416 314.5,48.5C 313.374,47.1916 313.374,45.8583 314.5,44.5 Z"/></g>
<g><path style="opacity:1" fill="#225e8e" d="M 286.5,42.5 C 288.388,44.9878 289.055,47.9878 288.5,51.5C 290.199,51.3398 291.866,51.5065 293.5,52C 291.19,52.4966 288.857,52.6633 286.5,52.5C 286.5,49.1667 286.5,45.8333 286.5,42.5 Z"/></g>
<g><path style="opacity:1" fill="#31608c" d="M 308.5,41.5 C 308.179,43.0481 307.179,43.7148 305.5,43.5C 305.184,54.5346 304.35,54.8679 303,44.5C 302.075,43.9535 301.242,43.2868 300.5,42.5C 303.086,41.52 305.753,41.1866 308.5,41.5 Z"/></g>
<g><path style="opacity:1" fill="#306393" d="M 276.5,52.5 C 273.032,49.4916 272.699,46.1583 275.5,42.5C 280.376,40.2296 283.042,41.7296 283.5,47C 283.418,51.5748 281.085,53.4081 276.5,52.5 Z"/></g>
<g><path style="opacity:1" fill="#e2f0f5" d="M 276.5,44.5 C 278.167,44.5 279.833,44.5 281.5,44.5C 281.5,46.5 281.5,48.5 281.5,50.5C 279.833,50.5 278.167,50.5 276.5,50.5C 276.5,48.5 276.5,46.5 276.5,44.5 Z"/></g>
<g><path style="opacity:1" fill="#a7c5d6" d="M 286.5,42.5 C 286.842,41.6618 287.508,41.3284 288.5,41.5C 289.477,44.2869 289.81,47.2869 289.5,50.5C 291.167,50.5 292.833,50.5 294.5,50.5C 294.5,48.1667 294.5,45.8333 294.5,43.5C 295.817,46.2301 295.817,49.0635 294.5,52C 295.793,52.49 297.127,52.6567 298.5,52.5C 294.5,53.8333 290.5,53.8333 286.5,52.5C 288.857,52.6633 291.19,52.4966 293.5,52C 291.866,51.5065 290.199,51.3398 288.5,51.5C 289.055,47.9878 288.388,44.9878 286.5,42.5 Z"/></g>
<g><path style="opacity:1" fill="#eff7f7" d="M 163.5,10.5 C 164.222,10.9175 164.722,11.5842 165,12.5C 165.333,11.8333 165.667,11.1667 166,10.5C 165.782,12.5868 165.949,14.5868 166.5,16.5C 167.298,14.9223 167.798,13.2556 168,11.5C 168.333,12.8333 168.667,14.1667 169,15.5C 169.198,13.6183 169.698,11.9516 170.5,10.5C 173.021,19.2427 175.854,27.9094 179,36.5C 181.719,37.4438 184.552,37.7771 187.5,37.5C 188.852,32.9145 190.019,28.2479 191,23.5C 192.286,28.0959 193.119,32.7626 193.5,37.5C 196.5,37.5 199.5,37.5 202.5,37.5C 204.548,28.6779 207.548,20.3446 211.5,12.5C 211.335,15.5184 211.502,18.5184 212,21.5C 212.413,18.7679 213.08,16.1013 214,13.5C 214.986,12.8288 216.153,12.8288 217.5,13.5C 212.91,22.2524 215.577,26.9191 225.5,27.5C 225.5,28.5 225.5,29.5 225.5,30.5C 222.318,30.4268 219.318,29.9268 216.5,29C 214.987,31.9156 215.32,34.5823 217.5,37C 224.245,38.7019 230.078,37.2019 235,32.5C 235.667,29.8333 235.667,27.1667 235,24.5C 231.589,22.281 228.089,20.281 224.5,18.5C 227.188,17.2026 229.688,17.5359 232,19.5C 232.557,17.3853 233.391,15.3853 234.5,13.5C 233.757,12.8182 233.091,12.1515 232.5,11.5C 235.306,10.0529 236.306,10.7196 235.5,13.5C 237.396,14.4656 239.396,14.7989 241.5,14.5C 239.305,23.1144 242.638,27.4477 251.5,27.5C 251.5,28.5 251.5,29.5 251.5,30.5C 247.921,30.6837 244.587,30.017 241.5,28.5C 240.55,31.0679 240.55,33.5679 241.5,36C 246.931,38.0797 252.264,37.9131 257.5,35.5C 259.312,35.2287 260.978,34.562 262.5,33.5C 262.291,32.914 261.957,32.414 261.5,32C 262.274,29.595 262.774,27.095 263,24.5C 262.947,27.6752 263.78,30.3419 265.5,32.5C 265.5,34.1667 265.5,35.8333 265.5,37.5C 270.73,38.156 276.064,38.9894 281.5,40C 278.949,40.0023 276.949,40.8356 275.5,42.5C 272.699,46.1583 273.032,49.4916 276.5,52.5C 278.116,54.4158 277.782,55.9158 275.5,57C 268.787,57.5924 262.454,58.759 256.5,60.5C 254.896,61.287 254.229,62.6203 254.5,64.5C 249.454,62.6335 249.454,61.1335 254.5,60C 251.293,57.6838 248.96,58.3505 247.5,62C 248.292,63.9597 249.625,65.4597 251.5,66.5C 246.637,68.6749 247.303,69.6749 253.5,69.5C 251.052,70.4731 248.385,70.8064 245.5,70.5C 246.968,66.6927 246.635,63.0261 244.5,59.5C 243.77,60.9337 242.77,62.1004 241.5,63C 241.957,63.414 242.291,63.914 242.5,64.5C 241.388,65.2652 240.721,66.2652 240.5,67.5C 239.624,67.6309 238.957,67.2975 238.5,66.5C 239.681,64.802 239.681,63.1353 238.5,61.5C 238.151,65.4198 236.818,66.0865 234.5,63.5C 236.098,61.1304 235.598,59.4638 233,58.5C 230.03,59.022 229.196,60.522 230.5,63C 228.398,64.7328 228.065,66.7328 229.5,69C 233.254,68.9138 236.921,69.0804 240.5,69.5C 236.689,70.6453 232.689,70.8119 228.5,70C 226.808,68.5993 226.141,66.7659 226.5,64.5C 224.533,64.7394 222.699,64.4061 221,63.5C 220.963,65.9739 220.13,67.9739 218.5,69.5C 218.205,65.9235 219.205,62.7568 221.5,60C 219.865,59.4604 218.532,59.9604 217.5,61.5C 216.468,59.9604 215.135,59.4604 213.5,60C 215.795,62.7568 216.795,65.9235 216.5,69.5C 212.215,70.2949 207.881,70.6282 203.5,70.5C 203.657,69.1266 203.49,67.7932 203,66.5C 200.901,67.1305 199.068,68.1305 197.5,69.5C 194.256,71.1792 192.256,70.1792 191.5,66.5C 190.167,66.5 188.833,66.5 187.5,66.5C 188.878,65.7656 190.378,65.0989 192,64.5C 192.167,63.6667 192.333,62.8333 192.5,62C 192.316,60.6244 191.649,59.7911 190.5,59.5C 188.735,58.5386 186.735,58.2053 184.5,58.5C 184.5,61.8333 184.5,65.1667 184.5,68.5C 183.833,66.1667 183.167,63.8333 182.5,61.5C 182.585,60.0047 181.919,59.0047 180.5,58.5C 179.516,61.4281 179.183,64.4281 179.5,67.5C 178.167,67.5 176.833,67.5 175.5,67.5C 175.5,64.8333 175.5,62.1667 175.5,59.5C 174.791,58.596 173.791,58.2627 172.5,58.5C 172.19,61.7131 172.523,64.7131 173.5,67.5C 173.611,68.1174 173.944,68.6174 174.5,69C 176.473,69.4955 178.473,69.6621 180.5,69.5C 175.167,70.8333 169.833,70.8333 164.5,69.5C 169.123,70.5918 170.956,68.9252 170,64.5C 163.941,62.1283 164.108,60.6283 170.5,60C 167.583,57.8127 165.25,58.3127 163.5,61.5C 164.071,63.7414 165.404,65.4081 167.5,66.5C 165.668,67.0568 164.335,68.0568 163.5,69.5C 161.99,70.7279 160.49,70.7279 159,69.5C 158.997,66.9676 159.497,64.4676 160.5,62C 160.167,61.1667 159.833,60.3333 159.5,59.5C 158.702,61.0777 158.202,62.7444 158,64.5C 156.989,65.3366 155.822,65.67 154.5,65.5C 155.573,63.3469 155.573,61.3469 154.5,59.5C 152.393,58.5318 150.059,58.1984 147.5,58.5C 147.185,62.3714 147.518,66.0381 148.5,69.5C 149.943,68.6649 150.943,67.3316 151.5,65.5C 152.766,67.4039 154.433,68.7372 156.5,69.5C 152.339,70.1041 148.173,71.1041 144,72.5C 142.69,71.1031 141.19,70.1031 139.5,69.5C 141.604,69.7989 143.604,69.4656 145.5,68.5C 144.311,67.5713 142.978,67.238 141.5,67.5C 141.5,66.5 141.5,65.5 141.5,64.5C 146.833,64.1667 146.833,63.8333 141.5,63.5C 141.5,62.5 141.5,61.5 141.5,60.5C 143.099,60.7678 144.432,60.4345 145.5,59.5C 143.393,58.5318 141.059,58.1984 138.5,58.5C 138.5,62.1667 138.5,65.8333 138.5,69.5C 137.309,67.6732 135.975,66.0066 134.5,64.5C 134.157,62.5168 134.824,61.1834 136.5,60.5C 137.043,60.44 137.376,60.1067 137.5,59.5C 134.5,58.1667 131.5,58.1667 128.5,59.5C 128.957,60.2975 129.624,60.6309 130.5,60.5C 131.477,63.2869 131.81,66.2869 131.5,69.5C 132.5,69.5 133.5,69.5 134.5,69.5C 133.081,70.4511 131.415,70.7845 129.5,70.5C 129.877,67.4752 130.044,64.4752 130,61.5C 128.933,62.1905 127.766,62.6905 126.5,63C 127.167,63.3333 127.833,63.6667 128.5,64C 127.584,64.2784 126.918,64.7784 126.5,65.5C 125.519,63.604 124.519,61.604 123.5,59.5C 122.635,58.4173 121.635,58.2506 120.5,59C 119.318,62.3976 117.984,65.731 116.5,69C 117.448,69.4828 118.448,69.6495 119.5,69.5C 117.454,70.9653 115.62,70.632 114,68.5C 113.326,69.5784 112.326,70.2451 111,70.5C 109.393,69.9265 107.893,69.2598 106.5,68.5C 106.892,66.8211 107.392,65.1545 108,63.5C 108.876,65.725 110.043,67.725 111.5,69.5C 113.979,66.089 114.979,62.4223 114.5,58.5C 113.914,58.7093 113.414,59.0426 113,59.5C 112.553,65.9892 111.553,65.9892 110,59.5C 109.282,58.5494 108.449,58.3828 107.5,59C 105.419,67.7009 104.086,67.5343 103.5,58.5C 102.325,58.281 101.325,58.6143 100.5,59.5C 101.505,62.8456 102.505,66.1789 103.5,69.5C 102.503,69.5299 101.836,69.0299 101.5,68C 100.577,64.4719 99.5765,60.9719 98.5,57.5C 99.14,54.2402 99.8067,50.7402 100.5,47C 100.371,45.0194 99.7042,43.3528 98.5,42C 100.635,41.1237 101.969,39.6237 102.5,37.5C 105.5,37.5 108.5,37.5 111.5,37.5C 109.631,38.1646 107.631,38.8313 105.5,39.5C 109.263,39.8962 112.597,40.8962 115.5,42.5C 114.761,42.369 114.094,42.5357 113.5,43C 114.965,46.099 116.299,49.2656 117.5,52.5C 118.172,51.0508 118.839,49.7175 119.5,48.5C 119.777,51.4475 119.444,54.2809 118.5,57C 119.833,57.6667 121.167,57.6667 122.5,57C 122.912,55.4361 123.245,53.9361 123.5,52.5C 123.833,52.5 124.167,52.5 124.5,52.5C 131.493,54.0041 134.327,51.3375 133,44.5C 132.292,43.6195 131.458,42.9528 130.5,42.5C 130.5,42.1667 130.5,41.8333 130.5,41.5C 132.703,41.9349 134.703,41.9349 136.5,41.5C 136.5,45.1667 136.5,48.8333 136.5,52.5C 138.984,53.3689 141.651,54.0356 144.5,54.5C 146.038,54.5466 147.038,53.8799 147.5,52.5C 147.238,51.0222 147.571,49.6888 148.5,48.5C 149.382,49.7598 150.382,50.9264 151.5,52C 152.332,52.6877 152.998,52.521 153.5,51.5C 152.833,50.5 152.167,49.5 151.5,48.5C 154.038,46.3224 154.038,44.3224 151.5,42.5C 149.735,41.5386 147.735,41.2053 145.5,41.5C 147.042,40.8365 148.709,40.1698 150.5,39.5C 148.955,38.5481 147.288,38.2148 145.5,38.5C 145.307,34.551 144.807,34.551 144,38.5C 143.667,37.8333 143.333,37.1667 143,36.5C 142.076,38.4951 140.91,38.8284 139.5,37.5C 140.693,37.0296 141.36,36.0296 141.5,34.5C 142.082,30.8449 142.582,27.1782 143,23.5C 144.795,28.0119 145.961,32.6786 146.5,37.5C 148.792,37.7564 150.959,37.4231 153,36.5C 156.592,21.7608 158.425,22.0941 158.5,37.5C 161.5,37.5 164.5,37.5 167.5,37.5C 167.5,36.5 167.5,35.5 167.5,34.5C 166.486,26.4444 165.153,18.4444 163.5,10.5 Z"/></g>
<g><path style="opacity:1" fill="#b3cfdf" d="M 145.5,41.5 C 147.735,41.2053 149.735,41.5386 151.5,42.5C 149.5,42.5 147.5,42.5 145.5,42.5C 144.931,46.3293 145.598,49.6627 147.5,52.5C 147.038,53.8799 146.038,54.5466 144.5,54.5C 141.651,54.0356 138.984,53.3689 136.5,52.5C 138.527,52.6621 140.527,52.4955 142.5,52C 141.263,51.7679 140.263,51.2679 139.5,50.5C 140.833,50.5 142.167,50.5 143.5,50.5C 143.351,51.552 143.517,52.552 144,53.5C 144.176,49.3123 144.676,45.3123 145.5,41.5 Z"/></g>
<g><path style="opacity:1" fill="#7d9eb4" d="M 215.5,42.5 C 216.568,41.5655 217.901,41.2322 219.5,41.5C 219.5,45.5 219.5,49.5 219.5,53.5C 218.209,53.7373 217.209,53.404 216.5,52.5C 218.402,49.6627 219.069,46.3293 218.5,42.5C 217.5,42.5 216.5,42.5 215.5,42.5 Z"/></g>
<g><path style="opacity:1" fill="#36699c" d="M 210.5,42.5 C 211.322,44.3885 212.155,46.3885 213,48.5C 213.845,46.3885 214.678,44.3885 215.5,42.5C 216.5,42.5 217.5,42.5 218.5,42.5C 219.069,46.3293 218.402,49.6627 216.5,52.5C 216.449,44.6274 215.782,44.6274 214.5,52.5C 213.5,52.5 212.5,52.5 211.5,52.5C 211.313,50.4357 210.813,48.4357 210,46.5C 209.998,49.0512 209.164,51.0512 207.5,52.5C 207.5,49.1667 207.5,45.8333 207.5,42.5C 208.5,42.5 209.5,42.5 210.5,42.5 Z"/></g>
<g><path style="opacity:1" fill="#2f6290" d="M 158.5,41.5 C 159.822,41.33 160.989,41.6634 162,42.5C 162.975,45.7603 164.142,48.927 165.5,52C 163.621,52.0632 161.787,51.5632 160,50.5C 158.635,50.8443 157.468,51.5109 156.5,52.5C 156.167,52 155.833,51.5 155.5,51C 156.607,47.8462 157.607,44.6795 158.5,41.5 Z"/></g>
<g><path style="opacity:1" fill="#19538b" d="M 235.5,44.5 C 235.5,47.1667 235.5,49.8333 235.5,52.5C 233.612,50.0122 232.945,47.0122 233.5,43.5C 231.956,42.2723 233.623,42.1056 238.5,43C 237.263,43.2321 236.263,43.7321 235.5,44.5 Z"/></g>
<g><path style="opacity:1" fill="#265e92" d="M 222.5,42.5 C 224.527,42.3379 226.527,42.5045 228.5,43C 227.207,43.49 225.873,43.6567 224.5,43.5C 224.5,44.5 224.5,45.5 224.5,46.5C 225.833,46.5 227.167,46.5 228.5,46.5C 227.665,47.9432 226.332,48.9432 224.5,49.5C 229.363,51.6749 228.697,52.6749 222.5,52.5C 222.5,49.1667 222.5,45.8333 222.5,42.5 Z"/></g>
<g><path style="opacity:1" fill="#316797" d="M 167.5,41.5 C 170.908,40.828 173.575,41.828 175.5,44.5C 175.023,45.4776 174.357,46.3109 173.5,47C 175.211,48.1332 175.711,49.6332 175,51.5C 172.619,52.435 170.119,52.7683 167.5,52.5C 167.5,48.8333 167.5,45.1667 167.5,41.5 Z"/></g>
<g><path style="opacity:1" fill="#d7f6f9" d="M 170.5,48.5 C 172.337,48.6395 172.67,49.3061 171.5,50.5C 170.702,50.0431 170.369,49.3764 170.5,48.5 Z"/></g>
<g><path style="opacity:1" fill="#6082a7" d="M 142.5,43.5 C 141.602,44.1577 140.602,44.8243 139.5,45.5C 140.5,46.1667 141.5,46.8333 142.5,47.5C 141.007,48.1411 140.007,49.1411 139.5,50.5C 138.532,48.3926 138.198,46.0593 138.5,43.5C 139.833,43.5 141.167,43.5 142.5,43.5 Z"/></g>
<g><path style="opacity:1" fill="#2a609a" d="M 136.5,41.5 C 139.082,41.0254 141.082,41.6921 142.5,43.5C 141.167,43.5 139.833,43.5 138.5,43.5C 138.198,46.0593 138.532,48.3926 139.5,50.5C 140.263,51.2679 141.263,51.7679 142.5,52C 140.527,52.4955 138.527,52.6621 136.5,52.5C 136.5,48.8333 136.5,45.1667 136.5,41.5 Z"/></g>
<g><path style="opacity:1" fill="#abd6e6" d="M 159.5,44.5 C 161.476,45.4271 161.809,46.7605 160.5,48.5C 159.571,47.3112 159.238,45.9778 159.5,44.5 Z"/></g>
<g><path style="opacity:1" fill="#285e8e" d="M 151.5,42.5 C 154.038,44.3224 154.038,46.3224 151.5,48.5C 152.167,49.5 152.833,50.5 153.5,51.5C 152.998,52.521 152.332,52.6877 151.5,52C 150.382,50.9264 149.382,49.7598 148.5,48.5C 147.571,49.6888 147.238,51.0222 147.5,52.5C 145.598,49.6627 144.931,46.3293 145.5,42.5C 147.5,42.5 149.5,42.5 151.5,42.5 Z"/></g>
<g><path style="opacity:1" fill="#6695ba" d="M 210.5,42.5 C 209.5,42.5 208.5,42.5 207.5,42.5C 207.5,45.8333 207.5,49.1667 207.5,52.5C 206.518,49.0381 206.185,45.3714 206.5,41.5C 208.099,41.2322 209.432,41.5655 210.5,42.5 Z"/></g>
<g><path style="opacity:1" fill="#a6cde3" d="M 147.5,43.5 C 148.5,43.5 149.5,43.5 150.5,43.5C 150.5,44.5 150.5,45.5 150.5,46.5C 149.5,46.5 148.5,46.5 147.5,46.5C 147.5,45.5 147.5,44.5 147.5,43.5 Z"/></g>
<g><path style="opacity:1" fill="#356797" d="M 119.5,48.5 C 118.839,49.7175 118.172,51.0508 117.5,52.5C 116.299,49.2656 114.965,46.099 113.5,43C 114.094,42.5357 114.761,42.369 115.5,42.5C 116.158,43.3984 116.824,44.3984 117.5,45.5C 118.148,43.8508 119.148,42.5175 120.5,41.5C 120.833,42 121.167,42.5 121.5,43C 120.68,44.8003 120.014,46.6336 119.5,48.5 Z"/></g>
<g><path style="opacity:1" fill="#94bbd3" d="M 270.5,42.5 C 268.5,42.5 266.5,42.5 264.5,42.5C 264.5,45.8333 264.5,49.1667 264.5,52.5C 263.518,49.0381 263.185,45.3714 263.5,41.5C 266.059,41.1984 268.393,41.5318 270.5,42.5 Z"/></g>
<g><path style="opacity:1" fill="#3c6a97" d="M 189.5,41.5 C 194.573,40.5299 197.906,42.3632 199.5,47C 198.101,51.9819 194.768,53.8152 189.5,52.5C 189.5,48.8333 189.5,45.1667 189.5,41.5 Z"/></g>
<g><path style="opacity:1" fill="#ebf6f5" d="M 192.5,44.5 C 196.35,44.7007 197.35,46.5341 195.5,50C 194.552,50.4828 193.552,50.6495 192.5,50.5C 192.5,48.5 192.5,46.5 192.5,44.5 Z"/></g>
<g><path style="opacity:1" fill="#abcfdd" d="M 169.5,44.5 C 170.675,44.281 171.675,44.6143 172.5,45.5C 170.948,46.7979 169.948,46.4646 169.5,44.5 Z"/></g>
<g><path style="opacity:1" fill="#94bfda" d="M 130.5,41.5 C 130.5,41.8333 130.5,42.1667 130.5,42.5C 128.5,42.5 126.5,42.5 124.5,42.5C 124.5,45.8333 124.5,49.1667 124.5,52.5C 124.167,52.5 123.833,52.5 123.5,52.5C 123.5,48.8333 123.5,45.1667 123.5,41.5C 125.833,41.5 128.167,41.5 130.5,41.5 Z"/></g>
<g><path style="opacity:1" fill="#3d6e9e" d="M 101.5,41.5 C 102.5,41.5 103.5,41.5 104.5,41.5C 104.5,43.1667 104.5,44.8333 104.5,46.5C 105.833,46.5 107.167,46.5 108.5,46.5C 108.238,45.0222 108.571,43.6888 109.5,42.5C 110.833,45.8333 110.833,49.1667 109.5,52.5C 108.571,51.3112 108.238,49.9778 108.5,48.5C 107.167,48.5 105.833,48.5 104.5,48.5C 104.5,49.8333 104.5,51.1667 104.5,52.5C 103.5,52.5 102.5,52.5 101.5,52.5C 101.5,48.8333 101.5,45.1667 101.5,41.5 Z"/></g>
<g><path style="opacity:1" fill="#235889" d="M 246.5,42.5 C 248.852,43.952 249.185,45.952 247.5,48.5C 248.04,49.7481 248.707,50.9148 249.5,52C 249,52.1667 248.5,52.3333 248,52.5C 246.674,51.2011 245.34,49.8678 244,48.5C 243.878,50.437 243.045,51.7703 241.5,52.5C 241.5,49.1667 241.5,45.8333 241.5,42.5C 243.167,42.5 244.833,42.5 246.5,42.5 Z"/></g>
<g><path style="opacity:1" fill="#c9e0ee" d="M 243.5,43.5 C 247.31,44.7542 247.31,45.7542 243.5,46.5C 243.5,45.5 243.5,44.5 243.5,43.5 Z"/></g>
<g><path style="opacity:1" fill="#3a6997" d="M 180.5,41.5 C 181.833,41.5 183.167,41.5 184.5,41.5C 185.207,45.2476 186.207,48.9143 187.5,52.5C 185.633,52.045 183.8,51.3784 182,50.5C 180.635,50.8443 179.468,51.5109 178.5,52.5C 178.167,52 177.833,51.5 177.5,51C 178.607,47.8462 179.607,44.6795 180.5,41.5 Z"/></g>
<g><path style="opacity:1" fill="#bfe6f4" d="M 181.5,45.5 C 183.332,46.1405 183.665,47.1405 182.5,48.5C 181.614,47.675 181.281,46.675 181.5,45.5 Z"/></g>
<g><path style="opacity:1" fill="#20588d" d="M 270.5,42.5 C 272.586,46.6586 271.252,48.6586 266.5,48.5C 266.843,50.4832 266.176,51.8166 264.5,52.5C 264.5,49.1667 264.5,45.8333 264.5,42.5C 266.5,42.5 268.5,42.5 270.5,42.5 Z"/></g>
<g><path style="opacity:1" fill="#b7d7e5" d="M 266.5,43.5 C 269.861,44.2032 270.194,45.5365 267.5,47.5C 266.571,46.3112 266.238,44.9778 266.5,43.5 Z"/></g>
<g><path style="opacity:1" fill="#326295" d="M 254.5,41.5 C 258.473,41.3107 260.806,43.144 261.5,47C 261.151,52.0903 258.485,53.7569 253.5,52C 250.615,48.0562 250.948,44.5562 254.5,41.5 Z"/></g>
<g><path style="opacity:1" fill="#e7f1f2" d="M 255.5,43.5 C 256.496,43.4142 257.329,43.7476 258,44.5C 258.495,46.4727 258.662,48.4727 258.5,50.5C 253.161,50.1766 252.161,47.8433 255.5,43.5 Z"/></g>
<g><path style="opacity:1" fill="#7ea7c6" d="M 246.5,42.5 C 244.833,42.5 243.167,42.5 241.5,42.5C 241.5,45.8333 241.5,49.1667 241.5,52.5C 240.518,49.0381 240.185,45.3714 240.5,41.5C 242.735,41.2053 244.735,41.5386 246.5,42.5 Z"/></g>
<g><path style="opacity:1" fill="#9dbfd5" d="M 222.5,42.5 C 227.975,41.5111 233.642,41.1778 239.5,41.5C 239.5,42.5 239.5,43.5 239.5,44.5C 238.167,44.5 236.833,44.5 235.5,44.5C 236.263,43.7321 237.263,43.2321 238.5,43C 233.623,42.1056 231.956,42.2723 233.5,43.5C 232.945,47.0122 233.612,50.0122 235.5,52.5C 234.791,53.404 233.791,53.7373 232.5,53.5C 232.5,50.5 232.5,47.5 232.5,44.5C 230.143,44.3367 227.81,44.5034 225.5,45C 226.737,45.2321 227.737,45.7321 228.5,46.5C 227.167,46.5 225.833,46.5 224.5,46.5C 224.5,45.5 224.5,44.5 224.5,43.5C 225.873,43.6567 227.207,43.49 228.5,43C 226.527,42.5045 224.527,42.3379 222.5,42.5 Z"/></g>
<g><path style="opacity:1" fill="#245a8d" d="M 130.5,42.5 C 131.458,42.9528 132.292,43.6195 133,44.5C 134.327,51.3375 131.493,54.0041 124.5,52.5C 124.5,49.1667 124.5,45.8333 124.5,42.5C 126.5,42.5 128.5,42.5 130.5,42.5 Z"/></g>
<g><path style="opacity:1" fill="#d4e5ed" d="M 126.5,43.5 C 130.976,43.8003 132.31,45.9669 130.5,50C 129.207,50.49 127.873,50.6567 126.5,50.5C 126.5,48.1667 126.5,45.8333 126.5,43.5 Z"/></g>
<g><path style="opacity:1" fill="#1a5897" d="M 170.5,10.5 C 173.833,10.5 177.167,10.5 180.5,10.5C 182.032,28.9789 184.032,28.9789 186.5,10.5C 189.448,10.2229 192.281,10.5562 195,11.5C 195.263,16.0055 196.263,20.3388 198,24.5C 199.232,19.834 200.399,15.1673 201.5,10.5C 205.329,9.93104 208.663,10.5977 211.5,12.5C 207.548,20.3446 204.548,28.6779 202.5,37.5C 199.5,37.5 196.5,37.5 193.5,37.5C 193.119,32.7626 192.286,28.0959 191,23.5C 190.019,28.2479 188.852,32.9145 187.5,37.5C 184.552,37.7771 181.719,37.4438 179,36.5C 175.854,27.9094 173.021,19.2427 170.5,10.5 Z"/></g>
<g><path style="opacity:1" fill="#165696" d="M 232.5,11.5 C 233.091,12.1515 233.757,12.8182 234.5,13.5C 233.391,15.3853 232.557,17.3853 232,19.5C 229.688,17.5359 227.188,17.2026 224.5,18.5C 228.089,20.281 231.589,22.281 235,24.5C 235.667,27.1667 235.667,29.8333 235,32.5C 230.078,37.2019 224.245,38.7019 217.5,37C 215.32,34.5823 214.987,31.9156 216.5,29C 219.318,29.9268 222.318,30.4268 225.5,30.5C 225.5,29.5 225.5,28.5 225.5,27.5C 215.577,26.9191 212.91,22.2524 217.5,13.5C 222.196,10.4968 227.196,9.83018 232.5,11.5 Z"/></g>
<g><path style="opacity:1" fill="#deedf2" d="M 288.5,32.5 C 288.368,35.7967 286.702,37.4633 283.5,37.5C 283.633,40.8957 284.633,41.2291 286.5,38.5C 287.425,39.3569 288.092,40.3569 288.5,41.5C 287.508,41.3284 286.842,41.6618 286.5,42.5C 286.5,45.8333 286.5,49.1667 286.5,52.5C 285.577,51.6971 284.577,51.5304 283.5,52C 282.939,53.676 281.939,55.0094 280.5,56C 280.833,56.3333 281.167,56.6667 281.5,57C 286.684,57.1739 291.684,57.6739 296.5,58.5C 294.833,58.5 293.167,58.5 291.5,58.5C 290.92,62.649 291.586,66.3157 293.5,69.5C 289.833,70.8333 286.167,70.8333 282.5,69.5C 279.881,69.9959 277.214,69.9959 274.5,69.5C 275.675,69.719 276.675,69.3857 277.5,68.5C 279.004,65.5329 279.338,62.5329 278.5,59.5C 277.914,59.7093 277.414,60.0426 277,60.5C 276.667,62.1667 276.333,63.8333 276,65.5C 275.338,63.1873 274.838,60.854 274.5,58.5C 273.178,58.33 272.011,58.6634 271,59.5C 269.855,66.1362 269.022,66.1362 268.5,59.5C 267.448,59.3505 266.448,59.5172 265.5,60C 266.713,62.6865 267.38,65.5198 267.5,68.5C 266.041,68.4326 264.708,68.7659 263.5,69.5C 262.817,67.8235 261.483,67.1568 259.5,67.5C 259.5,66.5 259.5,65.5 259.5,64.5C 264.833,64.1667 264.833,63.8333 259.5,63.5C 259.5,62.5 259.5,61.5 259.5,60.5C 260.873,60.6567 262.207,60.49 263.5,60C 261.527,59.5045 259.527,59.3379 257.5,59.5C 257.5,62.8333 257.5,66.1667 257.5,69.5C 256.523,66.7131 256.19,63.7131 256.5,60.5C 262.454,58.759 268.787,57.5924 275.5,57C 277.782,55.9158 278.116,54.4158 276.5,52.5C 281.085,53.4081 283.418,51.5748 283.5,47C 283.042,41.7296 280.376,40.2296 275.5,42.5C 276.949,40.8356 278.949,40.0023 281.5,40C 276.064,38.9894 270.73,38.156 265.5,37.5C 271.358,37.8222 277.025,37.4889 282.5,36.5C 284.94,35.7622 286.94,34.4288 288.5,32.5 Z"/></g>
<g><path style="opacity:1" fill="#f9fbf8" d="M 309.5,51.5 C 309.5,51.8333 309.5,52.1667 309.5,52.5C 308.637,53.9403 308.637,55.2736 309.5,56.5C 307.709,57.1698 306.042,57.8365 304.5,58.5C 304.5,58.8333 304.5,59.1667 304.5,59.5C 302.665,60.1223 301.498,61.4556 301,63.5C 300.722,62.5842 300.222,61.9175 299.5,61.5C 298.833,60.1667 297.833,59.1667 296.5,58.5C 291.684,57.6739 286.684,57.1739 281.5,57C 281.167,56.6667 280.833,56.3333 280.5,56C 281.939,55.0094 282.939,53.676 283.5,52C 284.577,51.5304 285.577,51.6971 286.5,52.5C 290.5,53.8333 294.5,53.8333 298.5,52.5C 298.5,52.1667 298.5,51.8333 298.5,51.5C 298.338,49.4727 298.505,47.4727 299,45.5C 299.414,45.0426 299.914,44.7093 300.5,44.5C 301.484,47.4281 301.817,50.4281 301.5,53.5C 303.167,53.5 304.833,53.5 306.5,53.5C 306.187,50.7531 306.52,48.0865 307.5,45.5C 308.273,47.5152 308.94,49.5152 309.5,51.5 Z"/></g>
<g><path style="opacity:1" fill="#165796" d="M 59.5,65.5 C 58.8333,65.5 58.1667,65.5 57.5,65.5C 51.8333,65.5 46.1667,65.5 40.5,65.5C 40.5,59.8333 40.5,54.1667 40.5,48.5C 46.8333,48.5 53.1667,48.5 59.5,48.5C 59.5,54.1667 59.5,59.8333 59.5,65.5 Z"/></g>
<g><path style="opacity:1" fill="#6e97ba" d="M 38.5,48.5 C 39.4834,52.2984 39.8168,56.2984 39.5,60.5C 38.5084,60.6716 37.8417,60.3382 37.5,59.5C 38.4816,56.0381 38.815,52.3714 38.5,48.5 Z"/></g>
<g><path style="opacity:1" fill="#e2f0f4" d="M 325.5,42.5 C 324.5,42.5 323.5,42.5 322.5,42.5C 321.931,46.3293 322.598,49.6627 324.5,52.5C 323.152,53.1859 321.985,54.1859 321,55.5C 318.959,54.5769 316.792,54.2436 314.5,54.5C 314.5,55.5 314.5,56.5 314.5,57.5C 318.351,58.0291 321.851,57.3625 325,55.5C 331.872,56.9171 338.706,57.9171 345.5,58.5C 343.167,58.5 340.833,58.5 338.5,58.5C 338.5,60.1667 338.5,61.8333 338.5,63.5C 336.703,62.2702 334.703,61.6036 332.5,61.5C 332.223,64.4475 332.556,67.2809 333.5,70C 330.633,70.8007 327.966,70.6341 325.5,69.5C 324.806,66.5787 323.973,63.5787 323,60.5C 321.601,61.2266 320.101,61.7266 318.5,62C 320.058,62.21 321.391,62.71 322.5,63.5C 318.743,63.2864 318.076,64.2864 320.5,66.5C 315.746,67.9445 314.413,66.2778 316.5,61.5C 318.225,60.9851 319.892,60.3184 321.5,59.5C 316.821,57.6688 314.154,59.1688 313.5,64C 313.395,66.1782 314.061,68.0115 315.5,69.5C 313.021,70.6227 310.688,70.6227 308.5,69.5C 309.675,69.719 310.675,69.3857 311.5,68.5C 310.24,65.2826 308.907,62.1159 307.5,59C 306.552,58.5172 305.552,58.3505 304.5,58.5C 306.042,57.8365 307.709,57.1698 309.5,56.5C 308.637,55.2736 308.637,53.9403 309.5,52.5C 311.367,52.045 313.2,51.3784 315,50.5C 316.365,50.8443 317.532,51.5109 318.5,52.5C 319.107,52.3764 319.44,52.0431 319.5,51.5C 321.402,48.6627 322.069,45.3293 321.5,41.5C 323.099,41.2322 324.432,41.5655 325.5,42.5 Z"/></g>
<g><path style="opacity:1" fill="#648ba5" d="M 136.5,60.5 C 134.5,59.1667 132.5,59.1667 130.5,60.5C 129.624,60.6309 128.957,60.2975 128.5,59.5C 131.5,58.1667 134.5,58.1667 137.5,59.5C 137.376,60.1067 137.043,60.44 136.5,60.5 Z"/></g>
<g><path style="opacity:1" fill="#326290" d="M 197.5,69.5 C 195.586,66.3157 194.92,62.649 195.5,58.5C 199.07,57.8929 201.737,59.0596 203.5,62C 202.571,64.9088 200.571,66.0755 197.5,65.5C 197.5,66.8333 197.5,68.1667 197.5,69.5 Z"/></g>
<g><path style="opacity:1" fill="#84adc5" d="M 154.5,59.5 C 152.5,59.5 150.5,59.5 148.5,59.5C 148.5,62.8333 148.5,66.1667 148.5,69.5C 147.518,66.0381 147.185,62.3714 147.5,58.5C 150.059,58.1984 152.393,58.5318 154.5,59.5 Z"/></g>
<g><path style="opacity:1" fill="#22598d" d="M 190.5,59.5 C 191.649,59.7911 192.316,60.6244 192.5,62C 192.333,62.8333 192.167,63.6667 192,64.5C 190.378,65.0989 188.878,65.7656 187.5,66.5C 187.715,68.1788 187.048,69.1788 185.5,69.5C 185.5,66.1667 185.5,62.8333 185.5,59.5C 187.167,59.5 188.833,59.5 190.5,59.5 Z"/></g>
<g><path style="opacity:1" fill="#265888" d="M 205.5,59.5 C 207.369,61.6353 208.036,64.3019 207.5,67.5C 208.978,67.238 210.311,67.5713 211.5,68.5C 209.604,69.4656 207.604,69.7989 205.5,69.5C 205.5,66.1667 205.5,62.8333 205.5,59.5 Z"/></g>
<g><path style="opacity:1" fill="#225586" d="M 263.5,69.5 C 261.5,69.5 259.5,69.5 257.5,69.5C 257.5,66.1667 257.5,62.8333 257.5,59.5C 259.527,59.3379 261.527,59.5045 263.5,60C 262.207,60.49 260.873,60.6567 259.5,60.5C 259.5,61.5 259.5,62.5 259.5,63.5C 264.833,63.8333 264.833,64.1667 259.5,64.5C 259.5,65.5 259.5,66.5 259.5,67.5C 261.483,67.1568 262.817,67.8235 263.5,69.5 Z"/></g>
<g><path style="opacity:1" fill="#96bcd4" d="M 145.5,59.5 C 143.5,59.5 141.5,59.5 139.5,59.5C 139.5,62.8333 139.5,66.1667 139.5,69.5C 139.167,69.5 138.833,69.5 138.5,69.5C 138.5,65.8333 138.5,62.1667 138.5,58.5C 141.059,58.1984 143.393,58.5318 145.5,59.5 Z"/></g>
<g><path style="opacity:1" fill="#c6e6f1" d="M 187.5,60.5 C 188.5,60.5 189.5,60.5 190.5,60.5C 190.5,61.5 190.5,62.5 190.5,63.5C 189.5,63.5 188.5,63.5 187.5,63.5C 187.5,62.5 187.5,61.5 187.5,60.5 Z"/></g>
<g><path style="opacity:1" fill="#b2d3e6" d="M 197.5,60.5 C 198.5,60.5 199.5,60.5 200.5,60.5C 200.778,62.3464 200.111,63.6798 198.5,64.5C 197.571,63.3112 197.238,61.9778 197.5,60.5 Z"/></g>
<g><path style="opacity:1" fill="#285b8a" d="M 218.5,69.5 C 217.833,69.5 217.167,69.5 216.5,69.5C 216.795,65.9235 215.795,62.7568 213.5,60C 215.135,59.4604 216.468,59.9604 217.5,61.5C 218.532,59.9604 219.865,59.4604 221.5,60C 219.205,62.7568 218.205,65.9235 218.5,69.5 Z"/></g>
<g><path style="opacity:1" fill="#96c0d8" d="M 345.5,58.5 C 345.5,58.8333 345.5,59.1667 345.5,59.5C 343.5,59.5 341.5,59.5 339.5,59.5C 339.5,62.8333 339.5,66.1667 339.5,69.5C 338.539,67.7354 338.205,65.7354 338.5,63.5C 338.5,61.8333 338.5,60.1667 338.5,58.5C 340.833,58.5 343.167,58.5 345.5,58.5 Z"/></g>
<g><path style="opacity:1" fill="#76a4c7" d="M 190.5,59.5 C 188.833,59.5 187.167,59.5 185.5,59.5C 185.5,62.8333 185.5,66.1667 185.5,69.5C 184.833,69.5 184.5,69.1667 184.5,68.5C 184.5,65.1667 184.5,61.8333 184.5,58.5C 186.735,58.2053 188.735,58.5386 190.5,59.5 Z"/></g>
<g><path style="opacity:1" fill="#5283ad" d="M 379.5,59.5 C 377.833,59.5 376.167,59.5 374.5,59.5C 374.5,62.8333 374.5,66.1667 374.5,69.5C 373.518,66.0381 373.185,62.3714 373.5,58.5C 375.735,58.2053 377.735,58.5386 379.5,59.5 Z"/></g>
<g><path style="opacity:1" fill="#72a5be" d="M 175.5,59.5 C 173.631,61.6353 172.964,64.3019 173.5,67.5C 172.523,64.7131 172.19,61.7131 172.5,58.5C 173.791,58.2627 174.791,58.596 175.5,59.5 Z"/></g>
<g><path style="opacity:1" fill="#23578a" d="M 325.5,69.5 C 325.5,65.8333 325.5,62.1667 325.5,58.5C 327.604,58.2011 329.604,58.5344 331.5,59.5C 330.311,60.4287 328.978,60.762 327.5,60.5C 327.5,61.5 327.5,62.5 327.5,63.5C 332.833,63.8333 332.833,64.1667 327.5,64.5C 327.5,65.5 327.5,66.5 327.5,67.5C 328.978,67.238 330.311,67.5713 331.5,68.5C 329.604,69.4656 327.604,69.7989 325.5,69.5 Z"/></g>
<g><path style="opacity:1" fill="#255a8c" d="M 154.5,59.5 C 155.573,61.3469 155.573,63.3469 154.5,65.5C 155.6,66.6049 156.267,67.9382 156.5,69.5C 154.433,68.7372 152.766,67.4039 151.5,65.5C 150.943,67.3316 149.943,68.6649 148.5,69.5C 148.5,66.1667 148.5,62.8333 148.5,59.5C 150.5,59.5 152.5,59.5 154.5,59.5 Z"/></g>
<g><path style="opacity:1" fill="#bbe0ec" d="M 150.5,60.5 C 151.5,60.5 152.5,60.5 153.5,60.5C 153.5,61.5 153.5,62.5 153.5,63.5C 152.5,63.5 151.5,63.5 150.5,63.5C 150.5,62.5 150.5,61.5 150.5,60.5 Z"/></g>
<g><path style="opacity:1" fill="#406d9b" d="M 182.5,61.5 C 182.717,64.4206 182.051,67.0872 180.5,69.5C 178.473,69.6621 176.473,69.4955 174.5,69C 173.944,68.6174 173.611,68.1174 173.5,67.5C 172.964,64.3019 173.631,61.6353 175.5,59.5C 175.5,62.1667 175.5,64.8333 175.5,67.5C 176.833,67.5 178.167,67.5 179.5,67.5C 179.183,64.4281 179.516,61.4281 180.5,58.5C 181.919,59.0047 182.585,60.0047 182.5,61.5 Z"/></g>
<g><path style="opacity:1" fill="#316493" d="M 254.5,64.5 C 254.634,66.2915 254.301,67.9582 253.5,69.5C 247.303,69.6749 246.637,68.6749 251.5,66.5C 249.625,65.4597 248.292,63.9597 247.5,62C 248.96,58.3505 251.293,57.6838 254.5,60C 249.454,61.1335 249.454,62.6335 254.5,64.5 Z"/></g>
<g><path style="opacity:1" fill="#a3cce2" d="M 40.5,65.5 C 46.1667,65.5 51.8333,65.5 57.5,65.5C 57.5,66.1667 57.5,66.8333 57.5,67.5C 52.0557,66.8917 47.0557,67.5583 42.5,69.5C 41.6554,68.3285 40.9887,66.9952 40.5,65.5 Z"/></g>
<g><path style="opacity:1" fill="#2e5d8b" d="M 126.5,65.5 C 126.762,66.9778 126.429,68.3112 125.5,69.5C 124.614,68.675 124.281,67.675 124.5,66.5C 122.833,66.5 121.167,66.5 119.5,66.5C 119.5,67.5 119.5,68.5 119.5,69.5C 118.448,69.6495 117.448,69.4828 116.5,69C 117.984,65.731 119.318,62.3976 120.5,59C 121.635,58.2506 122.635,58.4173 123.5,59.5C 124.519,61.604 125.519,63.604 126.5,65.5 Z"/></g>
<g><path style="opacity:1" fill="#8dc2ed" d="M 121.5,61.5 C 124.347,63.7975 124.013,65.1309 120.5,65.5C 120.433,64.0413 120.766,62.7079 121.5,61.5 Z"/></g>
<g><path style="opacity:1" fill="#3f70a0" d="M 274.5,69.5 C 273.398,61.6049 272.398,61.6049 271.5,69.5C 269.901,69.7678 268.568,69.4345 267.5,68.5C 267.38,65.5198 266.713,62.6865 265.5,60C 266.448,59.5172 267.448,59.3505 268.5,59.5C 269.022,66.1362 269.855,66.1362 271,59.5C 272.011,58.6634 273.178,58.33 274.5,58.5C 274.838,60.854 275.338,63.1873 276,65.5C 276.333,63.8333 276.667,62.1667 277,60.5C 277.414,60.0426 277.914,59.7093 278.5,59.5C 279.338,62.5329 279.004,65.5329 277.5,68.5C 276.675,69.3857 275.675,69.719 274.5,69.5 Z"/></g>
<g><path style="opacity:1" fill="#2a5e8b" d="M 296.5,58.5 C 297.833,59.1667 298.833,60.1667 299.5,61.5C 299.096,62.7564 298.429,63.9231 297.5,65C 297.95,66.2853 298.617,67.452 299.5,68.5C 298.998,69.521 298.332,69.6877 297.5,69C 295.197,64.3181 293.863,64.4848 293.5,69.5C 291.586,66.3157 290.92,62.649 291.5,58.5C 293.167,58.5 294.833,58.5 296.5,58.5 Z"/></g>
<g><path style="opacity:1" fill="#c9e7f3" d="M 293.5,60.5 C 294.5,60.5 295.5,60.5 296.5,60.5C 296.5,61.5 296.5,62.5 296.5,63.5C 295.5,63.5 294.5,63.5 293.5,63.5C 293.5,62.5 293.5,61.5 293.5,60.5 Z"/></g>
<g><path style="opacity:1" fill="#316192" d="M 304.5,58.5 C 305.552,58.3505 306.552,58.5172 307.5,59C 308.907,62.1159 310.24,65.2826 311.5,68.5C 310.675,69.3857 309.675,69.719 308.5,69.5C 308.5,68.5 308.5,67.5 308.5,66.5C 305.722,66.0217 303.722,67.0217 302.5,69.5C 301.875,66.0219 302.541,62.6886 304.5,59.5C 304.5,59.1667 304.5,58.8333 304.5,58.5 Z"/></g>
<g><path style="opacity:1" fill="#a2cbe5" d="M 305.5,62.5 C 307.625,63.3676 307.791,64.3676 306,65.5C 304.317,64.8235 304.15,63.8235 305.5,62.5 Z"/></g>
<g><path style="opacity:1" fill="#386697" d="M 364.5,58.5 C 365.833,58.5 367.167,58.5 368.5,58.5C 368.993,61.8121 369.993,64.9788 371.5,68C 371.167,68.5 370.833,69 370.5,69.5C 367.816,66.9608 365.149,66.9608 362.5,69.5C 362.167,68.8333 361.833,68.1667 361.5,67.5C 362.704,64.5559 363.704,61.5559 364.5,58.5 Z"/></g>
<g><path style="opacity:1" fill="#92c5ea" d="M 365.5,61.5 C 367.104,62.287 367.771,63.6203 367.5,65.5C 366.325,65.719 365.325,65.3857 364.5,64.5C 365.127,63.5832 365.461,62.5832 365.5,61.5 Z"/></g>
<g><path style="opacity:1" fill="#2b5e93" d="M 379.5,59.5 C 381.777,60.8618 382.11,62.6951 380.5,65C 382.428,70.7996 381.261,70.9663 377,65.5C 376.878,67.437 376.045,68.7703 374.5,69.5C 374.5,66.1667 374.5,62.8333 374.5,59.5C 376.167,59.5 377.833,59.5 379.5,59.5 Z"/></g>
<g><path style="opacity:1" fill="#bdd9e6" d="M 375.5,60.5 C 376.5,60.5 377.5,60.5 378.5,60.5C 378.5,61.5 378.5,62.5 378.5,63.5C 377.5,63.5 376.5,63.5 375.5,63.5C 375.5,62.5 375.5,61.5 375.5,60.5 Z"/></g>
<g><path style="opacity:1" fill="#2c5e8b" d="M 282.5,69.5 C 282.5,65.8333 282.5,62.1667 282.5,58.5C 284.604,58.2011 286.604,58.5344 288.5,59.5C 287.311,60.4287 285.978,60.762 284.5,60.5C 284.5,61.5 284.5,62.5 284.5,63.5C 289.833,63.8333 289.833,64.1667 284.5,64.5C 284.5,65.5 284.5,66.5 284.5,67.5C 285.978,67.238 287.311,67.5713 288.5,68.5C 286.604,69.4656 284.604,69.7989 282.5,69.5 Z"/></g>
<g><path style="opacity:1" fill="#285b8a" d="M 345.5,59.5 C 345.024,62.2582 345.524,64.9248 347,67.5C 344.865,69.2785 342.365,69.9452 339.5,69.5C 339.5,66.1667 339.5,62.8333 339.5,59.5C 341.5,59.5 343.5,59.5 345.5,59.5 Z"/></g>
<g><path style="opacity:1" fill="#aad3e7" d="M 341.5,64.5 C 342.5,64.5 343.5,64.5 344.5,64.5C 344.5,65.5 344.5,66.5 344.5,67.5C 343.5,67.5 342.5,67.5 341.5,67.5C 341.5,66.5 341.5,65.5 341.5,64.5 Z"/></g>
<g><path style="opacity:1" fill="#a7d2ec" d="M 341.5,60.5 C 344.957,60.6672 345.29,61.6672 342.5,63.5C 341.614,62.675 341.281,61.675 341.5,60.5 Z"/></g>
<g><path style="opacity:1" fill="#346696" d="M 106.5,68.5 C 105.791,69.404 104.791,69.7373 103.5,69.5C 102.505,66.1789 101.505,62.8456 100.5,59.5C 101.325,58.6143 102.325,58.281 103.5,58.5C 104.086,67.5343 105.419,67.7009 107.5,59C 108.449,58.3828 109.282,58.5494 110,59.5C 111.553,65.9892 112.553,65.9892 113,59.5C 113.414,59.0426 113.914,58.7093 114.5,58.5C 114.979,62.4223 113.979,66.089 111.5,69.5C 110.043,67.725 108.876,65.725 108,63.5C 107.392,65.1545 106.892,66.8211 106.5,68.5 Z"/></g>
<g><path style="opacity:1" fill="#48729c" d="M 130.5,60.5 C 132.5,59.1667 134.5,59.1667 136.5,60.5C 134.824,61.1834 134.157,62.5168 134.5,64.5C 134.5,66.1667 134.5,67.8333 134.5,69.5C 133.5,69.5 132.5,69.5 131.5,69.5C 131.81,66.2869 131.477,63.2869 130.5,60.5 Z"/></g>
<g><path style="opacity:1" fill="#316091" d="M 164.5,69.5 C 164.167,69.5 163.833,69.5 163.5,69.5C 164.335,68.0568 165.668,67.0568 167.5,66.5C 165.404,65.4081 164.071,63.7414 163.5,61.5C 165.25,58.3127 167.583,57.8127 170.5,60C 164.108,60.6283 163.941,62.1283 170,64.5C 170.956,68.9252 169.123,70.5918 164.5,69.5 Z"/></g>
<g><path style="opacity:1" fill="#356693" d="M 240.5,67.5 C 240.5,68.1667 240.5,68.8333 240.5,69.5C 236.921,69.0804 233.254,68.9138 229.5,69C 228.065,66.7328 228.398,64.7328 230.5,63C 229.196,60.522 230.03,59.022 233,58.5C 235.598,59.4638 236.098,61.1304 234.5,63.5C 236.818,66.0865 238.151,65.4198 238.5,61.5C 239.681,63.1353 239.681,64.802 238.5,66.5C 238.957,67.2975 239.624,67.6309 240.5,67.5 Z"/></g>
<g><path style="opacity:1" fill="#e0f4f6" d="M 231.5,64.5 C 235.31,65.7542 235.31,66.7542 231.5,67.5C 231.5,66.5 231.5,65.5 231.5,64.5 Z"/></g>
<g><path style="opacity:1" fill="#33628d" d="M 351.5,58.5 C 359.633,58.38 361.633,61.88 357.5,69C 350.495,70.3236 347.995,67.4902 350,60.5C 350.717,59.9558 351.217,59.2891 351.5,58.5 Z"/></g>
<g><path style="opacity:1" fill="#e3eff0" d="M 353.5,60.5 C 354.5,60.5 355.5,60.5 356.5,60.5C 356.5,62.8333 356.5,65.1667 356.5,67.5C 351.161,67.1766 350.161,64.8433 353.5,60.5 Z"/></g>
<g><path style="opacity:1" fill="#2c6090" d="M 384.5,58.5 C 392.549,57.3724 395.216,60.5391 392.5,68C 389.986,69.2525 387.32,69.7525 384.5,69.5C 384.5,65.8333 384.5,62.1667 384.5,58.5 Z"/></g>
<g><path style="opacity:1" fill="#ddf0f3" d="M 389.5,61.5 C 390.649,61.7911 391.316,62.6244 391.5,64C 391.576,66.7561 390.243,67.9228 387.5,67.5C 387.025,64.9179 387.692,62.9179 389.5,61.5 Z"/></g>
<g><path style="opacity:1" fill="#7ea6b6" d="M 389.5,61.5 C 387.692,62.9179 387.025,64.9179 387.5,67.5C 386.532,65.3926 386.198,63.0593 386.5,60.5C 387.791,60.2627 388.791,60.596 389.5,61.5 Z"/></g>
<g><path style="opacity:1" fill="#3d6c9d" d="M 57.5,67.5 C 52.9443,69.4417 47.9443,70.1083 42.5,69.5C 47.0557,67.5583 52.0557,66.8917 57.5,67.5 Z"/></g>
<g><path style="opacity:1" fill="#255885" d="M 145.5,59.5 C 144.432,60.4345 143.099,60.7678 141.5,60.5C 141.5,61.5 141.5,62.5 141.5,63.5C 146.833,63.8333 146.833,64.1667 141.5,64.5C 141.5,65.5 141.5,66.5 141.5,67.5C 142.978,67.238 144.311,67.5713 145.5,68.5C 143.604,69.4656 141.604,69.7989 139.5,69.5C 139.5,66.1667 139.5,62.8333 139.5,59.5C 141.5,59.5 143.5,59.5 145.5,59.5 Z"/></g>
<g><path style="opacity:1" fill="#2d5e8d" d="M 322.5,63.5 C 322.5,65.5 322.5,67.5 322.5,69.5C 320.167,69.5 317.833,69.5 315.5,69.5C 314.061,68.0115 313.395,66.1782 313.5,64C 314.154,59.1688 316.821,57.6688 321.5,59.5C 319.892,60.3184 318.225,60.9851 316.5,61.5C 314.413,66.2778 315.746,67.9445 320.5,66.5C 318.076,64.2864 318.743,63.2864 322.5,63.5 Z"/></g>
<g><path style="opacity:1" fill="#daedf2" d="M 304.5,59.5 C 302.541,62.6886 301.875,66.0219 302.5,69.5C 303.722,67.0217 305.722,66.0217 308.5,66.5C 308.5,67.5 308.5,68.5 308.5,69.5C 303.713,70.5917 298.713,70.5917 293.5,69.5C 293.863,64.4848 295.197,64.3181 297.5,69C 298.332,69.6877 298.998,69.521 299.5,68.5C 298.617,67.452 297.95,66.2853 297.5,65C 298.429,63.9231 299.096,62.7564 299.5,61.5C 300.222,61.9175 300.722,62.5842 301,63.5C 301.498,61.4556 302.665,60.1223 304.5,59.5 Z"/></g>
<g><path style="opacity:1" fill="#15568d" d="M 54.5,70.5 C 51.6627,72.4023 48.3293,73.069 44.5,72.5C 47.3373,70.5977 50.6707,69.931 54.5,70.5 Z"/></g>
<g><path style="opacity:1" fill="#83a5be" d="M 54.5,70.5 C 55.404,71.209 55.7373,72.209 55.5,73.5C 51.6286,73.815 47.9619,73.4816 44.5,72.5C 48.3293,73.069 51.6627,72.4023 54.5,70.5 Z"/></g>
</svg>
