<svg xmlns="http://www.w3.org/2000/svg" xmlns:xlink="http://www.w3.org/1999/xlink" width="67" height="67" viewBox="0 0 67 67">
  <defs>
    <filter id="Ellipse_174" x="0" y="0" width="67" height="67" filterUnits="userSpaceOnUse">
      <feOffset input="SourceAlpha"/>
      <feGaussianBlur stdDeviation="3" result="blur"/>
      <feFlood flood-opacity="0.161"/>
      <feComposite operator="in" in2="blur"/>
      <feComposite in="SourceGraphic"/>
    </filter>
  </defs>
  <g id="Group_43196" data-name="Group 43196" transform="translate(-1838 -889)">
    <g id="Group_43148" data-name="Group 43148">
      <g transform="matrix(1, 0, 0, 1, 1838, 889)" filter="url(#Ellipse_174)">
        <circle id="Ellipse_174-2" data-name="Ellipse 174" cx="24.5" cy="24.5" r="24.5" transform="translate(9 9)" fill="#fff"/>
      </g>
      <g id="arrow_2_" data-name="arrow (2)" transform="translate(1867 930.703) rotate(-90)">
        <path id="Path_6" data-name="Path 6" d="M8.352,106.661a1.166,1.166,0,0,1-.827-.342L.343,99.137A1.17,1.17,0,0,1,2,97.483l6.355,6.355,6.355-6.355a1.17,1.17,0,0,1,1.654,1.654l-7.182,7.182A1.166,1.166,0,0,1,8.352,106.661Z" transform="translate(-0.001 -97.14)" fill="#06446a"/>
      </g>
    </g>
  </g>
</svg>
