<svg xmlns="http://www.w3.org/2000/svg" width="33" height="33" viewBox="0 0 33 33">
  <g id="Group_43109" data-name="Group 43109" transform="translate(-314 -291)">
    <circle id="Ellipse_137" data-name="Ellipse 137" cx="16.5" cy="16.5" r="16.5" transform="translate(314 291)" fill="#033e97"/>
    <g id="map_1_" data-name="map (1)" transform="translate(320.538 296.605)">
      <path id="Path_1023" data-name="Path 1023" d="M19.557,19.3,16.1,11.23a.577.577,0,0,0-.53-.349h-2.2a10.407,10.407,0,0,0,1.62-4.727c0-7.491-10.378-7.583-10.378,0a10.407,10.407,0,0,0,1.62,4.727h-2.2a.576.576,0,0,0-.53.349L.047,19.3a.577.577,0,0,0,.53.8h18.45A.577.577,0,0,0,19.557,19.3Zm-4.37-7.267,1.707,3.982c-.053.028-5.609,2.913-5.649,2.936H10.039c-.031-.034.229.227-3.529-3.531L8.6,14.352c.426.543.724.888.77.942a.577.577,0,0,0,.87,0,31.7,31.7,0,0,0,2.43-3.261ZM9.8,1.656c1.944,0,4.036,1.407,4.036,4.5,0,2.6-2.912,6.464-4.036,7.859-1.124-1.4-4.036-5.261-4.036-7.859C5.766,3.047,7.793,1.656,9.8,1.656ZM4.417,12.033c2.793,0,2.476,0,2.52,0,.325.5.651.969.954,1.386L2.68,16.085ZM1.969,17.745l3.462-1.772L8.41,18.951H1.451Zm11.776,1.207,3.606-1.873.8,1.873Zm0,0" transform="translate(0 -0.5)" fill="#fff"/>
      <path id="Path_1024" data-name="Path 1024" d="M214.284,92.648a1.73,1.73,0,1,0-1.73,1.729A1.732,1.732,0,0,0,214.284,92.648Zm-2.306,0a.577.577,0,1,1,.577.576A.577.577,0,0,1,211.977,92.648Zm0,0" transform="translate(-202.752 -87.456)" fill="#fff"/>
    </g>
  </g>
</svg>
