<svg xmlns="http://www.w3.org/2000/svg" width="28" height="28" viewBox="0 0 28 28">
  <g id="userhistory_inactive_ico" transform="translate(774 5524)">
    <g id="form_2" data-name="form 2" transform="translate(-773.334 -5523)">
      <path id="Path_972" data-name="Path 972" d="M3.334,4.984V19.312A3.988,3.988,0,0,0,7.319,23.3h4.858a.8.8,0,0,0,0-1.6H7.319a2.387,2.387,0,0,1-2.384-2.384V4.984A2.386,2.386,0,0,1,7.319,2.6H17.46a2.386,2.386,0,0,1,2.384,2.384v6.24a.8.8,0,0,0,1.6,0V4.984A3.989,3.989,0,0,0,17.46,1H7.319A3.989,3.989,0,0,0,3.334,4.984Z" transform="translate(0)" fill="#666"/>
      <path id="Path_973" data-name="Path 973" d="M9.173,7.563H17.62a.8.8,0,0,0,0-1.6H9.173a.8.8,0,1,0,0,1.6Z" transform="translate(-1.007 -0.992)" fill="#666"/>
      <path id="Path_974" data-name="Path 974" d="M18.42,12.076a.8.8,0,0,0-.8-.8H9.173a.8.8,0,0,0,0,1.6H17.62a.8.8,0,0,0,.8-.8Z" transform="translate(-1.007 -2.054)" fill="#666"/>
      <path id="Path_975" data-name="Path 975" d="M9.173,16.591a.8.8,0,1,0,0,1.6h3.84a.8.8,0,1,0,0-1.6Z" transform="translate(-1.007 -3.117)" fill="#666"/>
      <path id="Path_976" data-name="Path 976" d="M21.872,15.462a2.761,2.761,0,1,0,2.761,2.761A2.761,2.761,0,0,0,21.872,15.462Zm0,3.921a1.16,1.16,0,1,1,1.161-1.16,1.16,1.16,0,0,1-1.161,1.16Z" transform="translate(-3.154 -2.891)" fill="#666"/>
      <path id="Path_977" data-name="Path 977" d="M17.258,29.58a.8.8,0,0,0,.8-.8,3.283,3.283,0,1,1,6.567,0,.8.8,0,0,0,1.6,0,4.884,4.884,0,1,0-9.767,0,.8.8,0,0,0,.8.8Z" transform="translate(-2.624 -4.577)" fill="#666"/>
    </g>
    <rect id="Rectangle_298" data-name="Rectangle 298" width="28" height="28" transform="translate(-774 -5524)" fill="none"/>
  </g>
</svg>
