<svg xmlns="http://www.w3.org/2000/svg" width="28" height="28" viewBox="0 0 28 28">
  <g id="Group_43211" data-name="Group 43211" transform="translate(-36 -212)">
    <rect id="Rectangle_314" data-name="Rectangle 314" width="28" height="28" rx="8" transform="translate(36 212)" fill="#033e97"/>
    <g id="equalizer" transform="translate(43.538 219.538)">
      <path id="Path_1010" data-name="Path 1010" d="M2,15a1,1,0,0,1-1-1V8A1,1,0,0,1,3,8v6A1,1,0,0,1,2,15Z" transform="translate(-1 -1)" fill="#fff"/>
      <path id="Path_1011" data-name="Path 1011" d="M6,15a1,1,0,0,1-1-1V2A1,1,0,0,1,7,2V14A1,1,0,0,1,6,15Z" transform="translate(-1 -1)" fill="#fff"/>
      <path id="Path_1012" data-name="Path 1012" d="M10,15a1,1,0,0,1-1-1V10a1,1,0,0,1,2,0v4A1,1,0,0,1,10,15Z" transform="translate(-1 -1)" fill="#fff"/>
      <path id="Path_1013" data-name="Path 1013" d="M14,15a1,1,0,0,1-1-1V6a1,1,0,0,1,2,0v8A1,1,0,0,1,14,15Z" transform="translate(-1 -1)" fill="#fff"/>
    </g>
  </g>
</svg>
