<svg xmlns="http://www.w3.org/2000/svg" width="391.066" height="512" viewBox="0 0 391.066 512">
  <g id="water_2_" data-name="water (2)" transform="translate(-60.467 0)">
    <path id="Path_1297" data-name="Path 1297" d="M442.473,351.1,347.585,123.372a13.408,13.408,0,0,0-24.753,0L227.944,351.1C196.052,427.645,252.289,512,335.209,512S474.366,427.645,442.473,351.1Z" fill="#3297ff"/>
    <path id="Path_1299" data-name="Path 1299" d="M193.1,255.1,136.811,120.016a7.953,7.953,0,0,0-14.683,0L65.841,255.1c-18.918,45.4,14.441,95.443,63.628,95.443S212.017,300.508,193.1,255.1Z" fill="#3297ff"/>
    <path id="Path_1301" data-name="Path 1301" d="M262.387,80.607,229.975,2.818a4.58,4.58,0,0,0-8.455,0L189.108,80.606a39.693,39.693,0,1,0,73.279,0Z" fill="#3297ff"/>
    <g id="Group_4657" data-name="Group 4657" opacity="0.6">
      <path id="Path_1303" data-name="Path 1303" d="M374.324,465.486a7.726,7.726,0,0,1,1.843-10.77c25.416-17.988,39.378-53,25.15-87.145a7.726,7.726,0,0,1,14.264-5.944c17.248,41.395.372,83.861-30.486,105.7A7.727,7.727,0,0,1,374.324,465.486Z" fill="#c9f0fe"/>
    </g>
    <g id="Group_4658" data-name="Group 4658" opacity="0.6">
      <path id="Path_1304" data-name="Path 1304" d="M141.866,316.979a7.726,7.726,0,0,1,1.843-10.77,32.319,32.319,0,0,0,11.241-38.933,7.726,7.726,0,0,1,14.264-5.944,47.705,47.705,0,0,1-16.578,57.49A7.728,7.728,0,0,1,141.866,316.979Z" fill="#c9f0fe"/>
    </g>
  </g>
</svg>
