<svg xmlns="http://www.w3.org/2000/svg" width="28" height="28" viewBox="0 0 28 28">
  <g id="watertest_active_ico" transform="translate(-273.454 -264.762)">
    <g id="Page-1" transform="translate(276.288 266.759)">
      <g id="_048---Water-Test" data-name="048---Water-Test">
        <g id="Icons" transform="translate(1.529 0.388)">
          <rect id="Rectangle-path" width="7.784" height="3.632" rx="1.816" transform="translate(13.001 0.061)" fill="#fff"/>
        </g>
        <g id="Icons_copy">
          <path id="Shape" d="M22.337,20.177V4.214a1.552,1.552,0,0,0,1.164-1.5V1.552A1.552,1.552,0,0,0,21.949,0H16.517a1.552,1.552,0,0,0-1.552,1.552V2.716a1.552,1.552,0,0,0,1.164,1.5V8.319A19.222,19.222,0,0,0,12.5,4.493a1.024,1.024,0,0,0-1.273,0A19.234,19.234,0,0,0,8.081,7.648a11.252,11.252,0,0,0-2.716-3.2.776.776,0,0,0-.958,0c-.695.532-4.063,3.376-3.3,6.585a3.88,3.88,0,0,0,3.1,2.887,3.651,3.651,0,0,0,.667.054,3.88,3.88,0,0,0,.776-.085,6.534,6.534,0,0,0,.175,1.249A6.181,6.181,0,0,0,10.813,19.7a6.662,6.662,0,0,0,1.048.085,6.232,6.232,0,0,0,4.051-1.482c.081-.066.151-.144.229-.217v2.088a3.1,3.1,0,1,0,6.208,0Zm-6.6-17.461V1.552a.776.776,0,0,1,.776-.776h5.432a.776.776,0,0,1,.776.776V2.716a.776.776,0,0,1-.776.776H16.517A.776.776,0,0,1,15.741,2.716ZM16.9,4.268h4.656V5.432H20.009a.388.388,0,0,0,0,.776h1.552V7.372H20.009a.388.388,0,0,0,0,.776h1.552V9.312H20.009a.388.388,0,0,0,0,.776h1.552v1.164H20.009a.388.388,0,0,0,0,.776h1.552v1.164H18.069A8.823,8.823,0,0,0,16.9,9.557ZM4.345,13.15a3.081,3.081,0,0,1-2.483-2.285c-.667-2.821,2.627-5.521,3.015-5.82.318.252,3.1,2.522,3.1,5.044A3.1,3.1,0,0,1,5.924,13.01a3.139,3.139,0,0,1-1.579.14ZM15.4,17.717a5.5,5.5,0,0,1-4.458,1.222A5.4,5.4,0,0,1,6.58,14.946a5.778,5.778,0,0,1-.151-1.308,3.849,3.849,0,0,0,2.328-3.55,4.726,4.726,0,0,0-.314-1.641A18.5,18.5,0,0,1,11.705,5.1a.264.264,0,0,1,.318,0A17.693,17.693,0,0,1,16.16,9.8a7.884,7.884,0,0,1,1.133,3.83A5.355,5.355,0,0,1,15.4,17.717Zm1.509,2.46V17.212a6.084,6.084,0,0,0,1.164-3.244h3.492v1.164H20.009a.388.388,0,0,0,0,.776h1.552v1.164H20.009a.388.388,0,0,0,0,.776h1.552v2.328a2.328,2.328,0,1,1-4.656,0Z" transform="translate(-0.994 0)" fill="#666" stroke="#666" stroke-width="0.6"/>
        </g>
      </g>
    </g>
    <rect id="Rectangle_195" data-name="Rectangle 195" width="28" height="28" transform="translate(273.454 264.762)" fill="none"/>
  </g>
</svg>
