<svg xmlns="http://www.w3.org/2000/svg" width="28" height="28" viewBox="0 0 28 28">
  <g id="watertest_active_ico" transform="translate(-273.454 -264.762)">
    <g id="Page-1" transform="translate(276.288 266.759)">
      <g id="_048---Water-Test" data-name="048---Water-Test">
        <g id="Icons_copy">
          <path id="Shape" d="M22.337,20.177V4.214a1.552,1.552,0,0,0,1.164-1.5V1.552A1.552,1.552,0,0,0,21.949,0H16.517a1.552,1.552,0,0,0-1.552,1.552V2.716a1.552,1.552,0,0,0,1.164,1.5V8.319A19.222,19.222,0,0,0,12.5,4.493a1.024,1.024,0,0,0-1.273,0A19.234,19.234,0,0,0,8.081,7.648a11.252,11.252,0,0,0-2.716-3.2.776.776,0,0,0-.958,0c-.695.532-4.063,3.376-3.3,6.585a3.88,3.88,0,0,0,3.1,2.887,3.651,3.651,0,0,0,.667.054,3.88,3.88,0,0,0,.776-.085,6.534,6.534,0,0,0,.175,1.249A6.181,6.181,0,0,0,10.813,19.7a6.662,6.662,0,0,0,1.048.085,6.232,6.232,0,0,0,4.051-1.482c.081-.066.151-.144.229-.217v2.088a3.1,3.1,0,1,0,6.208,0Zm-6.6-17.461V1.552a.776.776,0,0,1,.776-.776h5.432a.776.776,0,0,1,.776.776V2.716a.776.776,0,0,1-.776.776H16.517A.776.776,0,0,1,15.741,2.716ZM16.9,4.268h4.656V5.432H20.009a.388.388,0,0,0,0,.776h1.552V7.372H20.009a.388.388,0,0,0,0,.776h1.552V9.312H20.009a.388.388,0,0,0,0,.776h1.552v1.164H20.009a.388.388,0,0,0,0,.776h1.552v1.164H18.069A8.823,8.823,0,0,0,16.9,9.557ZM4.345,13.15a3.081,3.081,0,0,1-2.483-2.285c-.667-2.821,2.627-5.521,3.015-5.82.318.252,3.1,2.522,3.1,5.044A3.1,3.1,0,0,1,5.924,13.01a3.139,3.139,0,0,1-1.579.14ZM15.4,17.717a5.5,5.5,0,0,1-4.458,1.222A5.4,5.4,0,0,1,6.58,14.946a5.778,5.778,0,0,1-.151-1.308,3.849,3.849,0,0,0,2.328-3.55,4.726,4.726,0,0,0-.314-1.641A18.5,18.5,0,0,1,11.705,5.1a.264.264,0,0,1,.318,0A17.693,17.693,0,0,1,16.16,9.8a7.884,7.884,0,0,1,1.133,3.83A5.355,5.355,0,0,1,15.4,17.717Zm1.509,2.46V17.212a6.084,6.084,0,0,0,1.164-3.244h3.492v1.164H20.009a.388.388,0,0,0,0,.776h1.552v1.164H20.009a.388.388,0,0,0,0,.776h1.552v2.328a2.328,2.328,0,1,1-4.656,0Z" transform="translate(-0.994 0)" fill="#fff" stroke="#fff" stroke-width="0.6"/>
        </g>
      </g>
      <path id="Shape-2" data-name="Shape" d="M4.69,13.868a1.854,1.854,0,0,1-1.236,1.747,1.875,1.875,0,0,1-.938.082,1.854,1.854,0,0,1-1.488-1.378c-.356-1.508,1.212-2.926,1.677-3.3a.206.206,0,0,1,.253,0,5.288,5.288,0,0,1,1.535,1.933A2.367,2.367,0,0,1,4.69,13.868Z" transform="translate(1.044 -4.235)" fill="#1ca9f4"/>
      <path id="Shape-3" data-name="Shape" d="M20.351,16.642a3.6,3.6,0,0,1-.732,2.176,3.679,3.679,0,0,1-3.547,1.4,3.633,3.633,0,0,1-2.928-2.684,3.708,3.708,0,0,1-.1-1.042A2.2,2.2,0,0,0,14.5,14.414a2.8,2.8,0,0,0-.227-1.073,11.75,11.75,0,0,1,2.179-2.257.407.407,0,0,1,.5,0,11.152,11.152,0,0,1,2.671,3.055A5.153,5.153,0,0,1,20.351,16.642Z" transform="translate(-5.822 -3.605)" fill="#02a9f4"/>
      <g id="Group_43078" data-name="Group 43078" transform="translate(1.61 10.183)">
        <path id="Shape-4" data-name="Shape" d="M6.075,27.45H6.028a2.3,2.3,0,0,1-1.874-1.719.4.4,0,1,1,.776-.178,1.513,1.513,0,0,0,1.226,1.125.389.389,0,1,1-.062.776Z" transform="translate(-4.144 -25.244)" fill="#d6eaff"/>
        <path id="Shape-5" data-name="Shape" d="M20.111,39.723h-.062a4.606,4.606,0,0,1-3.725-3.407.389.389,0,0,1,.757-.178,3.814,3.814,0,0,0,3.1,2.821.389.389,0,1,1-.062.776Z" transform="translate(-11.591 -31.727)" fill="#d6eaff"/>
        <path id="Shape-6" data-name="Shape" d="M44.551,51.94A1.509,1.509,0,0,1,43,50.388a.388.388,0,1,1,.776,0,.729.729,0,0,0,.776.776.388.388,0,1,1,0,.776Z" transform="translate(-27.922 -40.394)" fill="#1ca9f4"/>
      </g>
    </g>
    <rect id="Rectangle_195" data-name="Rectangle 195" width="28" height="28" transform="translate(273.454 264.762)" fill="none"/>
  </g>
</svg>
