<svg xmlns="http://www.w3.org/2000/svg" width="232.648" height="396.879" viewBox="0 0 232.648 396.879">
  <g id="Group_4660" data-name="Group 4660" transform="translate(2699 -7745.121)">
    <path id="Path_1305" data-name="Path 1305" d="M442.473,351.1,347.585,123.372a13.408,13.408,0,0,0-24.753,0L227.944,351.1C196.052,427.645,252.289,512,335.209,512S474.366,427.645,442.473,351.1Z" transform="translate(-2917.885 7630)" fill="#3297ff"/>
    <g id="Group_4659" data-name="Group 4659" transform="translate(-2917.885 7630)" opacity="0.6">
      <path id="Path_1303" data-name="Path 1303" d="M374.324,465.486a7.726,7.726,0,0,1,1.843-10.77c25.416-17.988,39.378-53,25.15-87.145a7.726,7.726,0,0,1,14.264-5.944c17.248,41.395.372,83.861-30.486,105.7A7.727,7.727,0,0,1,374.324,465.486Z" fill="#c9f0fe"/>
    </g>
  </g>
</svg>
